<?xml version="1.0" encoding="UTF-8" standalone="no"?>
<!-- Created with Inkscape (http://www.inkscape.org/) -->

<svg
   width="100.00001mm"
   height="100mm"
   viewBox="0 0 100.00001 100"
   version="1.1"
   id="svg5"
   inkscape:version="1.1.1 (3bf5ae0d25, 2021-09-20, custom)"
   sodipodi:docname="antica.svg"
   inkscape:export-filename="/home/pelegs/Pictures/anticar/antica.png"
   inkscape:export-xdpi="300.01099"
   inkscape:export-ydpi="300.01099"
   xmlns:inkscape="http://www.inkscape.org/namespaces/inkscape"
   xmlns:sodipodi="http://sodipodi.sourceforge.net/DTD/sodipodi-0.dtd"
   xmlns:xlink="http://www.w3.org/1999/xlink"
   xmlns="http://www.w3.org/2000/svg"
   xmlns:svg="http://www.w3.org/2000/svg">
  <sodipodi:namedview
     id="namedview7"
     pagecolor="#c5c5c5"
     bordercolor="#666666"
     borderopacity="1.0"
     inkscape:pageshadow="2"
     inkscape:pageopacity="0"
     inkscape:pagecheckerboard="0"
     inkscape:document-units="mm"
     showgrid="false"
     fit-margin-top="0"
     fit-margin-left="0"
     fit-margin-right="0"
     fit-margin-bottom="0"
     inkscape:zoom="1.0897757"
     inkscape:cx="198.66473"
     inkscape:cy="123.8787"
     inkscape:window-width="1916"
     inkscape:window-height="1029"
     inkscape:window-x="0"
     inkscape:window-y="0"
     inkscape:window-maximized="1"
     inkscape:current-layer="g2362" />
  <defs
     id="defs2" />
  <g
     id="g2342"
     inkscape:label="main"
     transform="translate(2.5800624,1.5865312)">
    <g
       id="g1943"
       inkscape:label="main circle"
       transform="translate(286.56638,11.09802)">
      <ellipse
         style="fill:#ffffff;stroke:none;stroke-width:1.2627;stroke-linecap:round;stroke-linejoin:round"
         id="ellipse2762"
         cx="-239.14644"
         cy="37.315449"
         rx="50.000004"
         ry="50"
         inkscape:label="outer stroke" />
      <ellipse
         style="fill:#000000;stroke:none;stroke-width:1.18461;stroke-linecap:round;stroke-linejoin:round"
         id="path1205"
         cx="-239.14644"
         cy="37.315449"
         rx="46.9077"
         ry="46.907696"
         inkscape:label="outer circle" />
      <ellipse
         style="fill:#ffffff;stroke:none;stroke-width:0.918748;stroke-linecap:round;stroke-linejoin:round"
         id="ellipse1449"
         cx="-239.14644"
         cy="37.315449"
         rx="36.380207"
         ry="36.380203"
         inkscape:label="inner circle" />
    </g>
    <g
       id="g2354"
       inkscape:label="action">
      <text
         xml:space="preserve"
         style="font-size:10.6561px;line-height:1;font-family:System-ui;-inkscape-font-specification:'System-ui, Normal';letter-spacing:1.24354px;word-spacing:0px;writing-mode:lr-tb;fill:#ffffff;stroke-width:0.799204"
         id="text8514"
         inkscape:label="action_text"
         transform="translate(-0.53894103,-0.15804938)"><textPath
           xlink:href="#path12256"
           id="textPath12311"><tspan
             id="tspan8512"
             style="font-style:normal;font-variant:normal;font-weight:bold;font-stretch:normal;font-family:Arial;-inkscape-font-specification:'Arial Bold';fill:#ffffff;stroke-width:0.799204"
             dx="0">ACTION</tspan></textPath></text>
      <path
         id="path12256"
         style="fill:none;stroke-width:1.73269;stroke-linecap:round;stroke-linejoin:round"
         d="M 25.84594,88.554413 A 45.571188,45.571188 0 0 0 87.560887,69.987455 45.571188,45.571188 0 0 0 68.99393,8.2725175 45.571188,45.571188 0 0 0 7.2790005,26.839472 45.571188,45.571188 0 0 0 25.84594,88.554413 Z"
         inkscape:label="action_path" />
    </g>
    <g
       id="g2348"
       inkscape:label="anticar">
      <path
         id="path9748"
         style="fill:none;stroke-width:1.43146;stroke-linecap:round;stroke-linejoin:round"
         d="m 25.708169,17.656277 a 37.648454,37.648454 0 0 1 52.468967,9.045424 37.648454,37.648454 0 0 1 -9.045427,52.468963 37.648454,37.648454 0 0 1 -52.46896,-9.045423 37.648454,37.648454 0 0 1 9.04542,-52.468964 z"
         inkscape:label="anticar_path" />
      <text
         xml:space="preserve"
         style="font-size:10.6561px;line-height:1.25;font-family:System-ui;-inkscape-font-specification:'System-ui, Normal';letter-spacing:0px;word-spacing:0px;writing-mode:lr-tb;fill:#ffffff;stroke-width:0.799204"
         id="text3759"
         transform="translate(-0.78911006,-0.13839837)"
         inkscape:label="anticar_text"><textPath
           xlink:href="#path9748"
           id="textPath10066"><tspan
             id="tspan3757"
             style="font-style:normal;font-variant:normal;font-weight:bold;font-stretch:normal;font-family:Arial;-inkscape-font-specification:'Arial Bold';fill:#ffffff;stroke-width:0.799204">ANTICAR</tspan></textPath></text>
    </g>
    <g
       id="g2362"
       inkscape:label="inner shapes">
      <path
         id="path4235"
         fill-rule="evenodd"
         d="m 62.064872,24.022115 0.268018,1.352027 0.59262,0.05658 0.07448,-0.36332 5.953105,2.322869 -5.875673,2.584934 -0.104189,0.413947 h -0.399062 v 0.521154 h -0.678985 v 0.399058 l -6.739303,-0.0804 -0.05662,0.381185 h -1.45625 v -0.92021 h -4.148402 l -0.05662,0.863629 -1.456261,0.05659 v -0.920211 h -2.310946 v 0.920211 l -1.456271,-0.05659 -0.05349,-0.863629 H 40.00964 v 0.920209 h -1.456271 l -0.05349,-0.381188 -13.748411,0.163791 -6.306272,0.399058 c -0.954763,-0.03275 -2.06228,0.226329 -2.263318,0.649211 -0.636986,1.691524 -1.040515,3.933985 -1.299008,6.230049 l -0.05177,3.341355 h 0.593233 l 0.06071,0.238243 h -1.676049 c -0.08449,-0.110192 -0.23943,-0.181661 -0.4199,-0.181661 h -0.520257 c -0.270699,0 -0.489593,0.163794 -0.489593,0.366299 0,0.205483 0.218894,0.372255 0.489593,0.372255 h 0.520257 c 0.176003,0 0.327583,-0.07147 0.413647,-0.175705 h 1.776707 l 0.0607,0.244198 -0.541418,0.107214 c 0.05715,0.396079 0.443719,0.652189 1.563765,0.592629 l 8.788775,-0.05361 c 0.165874,0.914257 1.679621,1.575381 2.695112,0.649211 l 0.325494,0.321629 h 5.069519 l 0.321645,-0.268027 c 1.036349,0.634323 2.331795,0.399058 2.587909,-0.75344 h 0.431804 l 0.160815,0.160813 h 19.565693 l 0.160815,-0.160813 h 0.431815 c 0.256103,1.152498 1.55157,1.387763 2.58792,0.75344 l 0.324612,0.268025 h 5.068615 l 0.324601,-0.321629 c 1.015501,0.92617 2.528345,0.265046 2.695123,-0.649211 l 8.788172,0.05361 c 1.119757,0.05956 1.5069,-0.19655 1.563481,-0.592629 l -0.542004,-0.107214 0.06253,-0.244198 h 1.774892 c 0.08633,0.104222 0.238256,0.175705 0.413954,0.175705 h 0.521155 c 0.271008,0 0.488394,-0.166772 0.488394,-0.372255 0,-0.202506 -0.217386,-0.366299 -0.488394,-0.366299 h -0.521155 c -0.178677,0 -0.333535,0.07147 -0.41991,0.181661 h -1.676619 l 0.06254,-0.238243 h 0.592625 l -0.05076,-3.341364 C 78.51258,36.374996 78.107564,34.132535 77.473248,32.441011 77.270727,32.01813 76.162909,31.759042 75.209943,31.7918 l -6.307488,-0.399057 -0.824903,-0.0088 v -0.473509 h -0.926176 v -0.521186 h -0.256104 l -0.07147,-0.527113 -2.16802,-0.05659 5.151988,-2.340735 0.02088,-0.360341 -6.542743,-2.531331 0.0775,-0.533068 z M 25.646466,33.7722 h 2.561711 v 1.033378 h -2.561711 z m 2.810969,0 h 2.564692 v 1.033378 h -2.564692 z m 3.370846,0 h 2.562594 v 1.033378 h -2.562594 z m 2.809774,0 h 2.567082 v 1.033378 h -2.567082 z m 3.28179,0 h 2.427105 v 1.033378 h -2.427105 z m 2.6594,0 h 2.433056 v 1.033378 h -2.433056 z m 10.065761,0 h 2.427082 v 1.033378 h -2.427082 z m 2.66534,0 h 2.424112 v 1.033378 h -2.424112 z m 3.141824,0 h 2.564089 v 1.033378 H 56.45217 Z m 2.81424,0 h 2.561109 v 1.033378 H 59.26641 Z m 3.365185,0 h 2.56706 v 1.033378 h -2.56706 z m 2.81423,0 h 2.564079 v 1.033378 h -2.564079 z m -49.328157,0.181661 h 1.475613 c 0.270698,0 0.4866,0.220373 0.4866,0.491376 v 3.448564 c 0,0.271 -0.215902,0.488397 -0.4866,0.488397 h -2.312152 c 0.165874,-1.509863 0.389816,-2.99888 0.836539,-4.428337 z m 59.944862,0 h 1.47413 c 0.446701,1.429457 0.66707,2.918474 0.833848,4.428337 H 76.06253 c -0.271,0 -0.491379,-0.217397 -0.491379,-0.488397 v -3.448564 c 0,-0.271003 0.220379,-0.491376 0.491379,-0.491376 z m -56.31167,0.461594 h 1.235289 c 0.270698,0 0.486611,0.217397 0.486611,0.488398 v 5.777388 c 0,0.271002 -0.215913,0.488397 -0.486611,0.488397 H 19.75086 c -0.270709,0 -0.489582,-0.217395 -0.489582,-0.488397 v -5.777388 c 0,-0.271001 0.218873,-0.488398 0.489582,-0.488398 z m 2.902403,0 h 1.234977 c 0.270709,0 0.489894,0.217397 0.489894,0.488398 v 5.777388 c 0,0.271002 -0.219185,0.488397 -0.489894,0.488397 h -1.234977 c -0.27072,0 -0.489894,-0.217395 -0.489894,-0.488397 v -5.777388 c 0,-0.271001 0.219174,-0.488398 0.489894,-0.488398 z m 21.934417,0 h 1.23588 c 0.268019,0 0.488388,0.217397 0.488388,0.488398 v 5.777388 c 0,0.271002 -0.220369,0.488397 -0.488388,0.488397 h -1.23588 c -0.271,0 -0.491391,-0.217395 -0.491391,-0.488397 v -5.777388 c 0,-0.271001 0.22038,-0.488398 0.491391,-0.488398 z m 3.246045,0 h 1.232921 c 0.270989,0 0.491368,0.217397 0.491368,0.488398 v 5.777388 c 0,0.271002 -0.220379,0.488397 -0.491368,0.488397 h -1.232921 c -0.270989,0 -0.491369,-0.217395 -0.491369,-0.488397 v -5.777388 c 0,-0.271001 0.22038,-0.488398 0.491369,-0.488398 z m 21.933243,0 h 1.235881 c 0.271,0 0.488387,0.217397 0.488387,0.488398 v 5.777388 c 0,0.271002 -0.217387,0.488397 -0.488387,0.488397 h -1.235881 c -0.271011,0 -0.488409,-0.217395 -0.488409,-0.488397 v -5.777388 c 0,-0.271001 0.217398,-0.488398 0.488409,-0.488398 z m 2.903577,0 h 1.23291 c 0.270999,0 0.491379,0.217397 0.491379,0.488398 v 5.777388 c 0,0.271002 -0.22038,0.488397 -0.491379,0.488397 h -1.23291 c -0.271,0 -0.491369,-0.217395 -0.491369,-0.488397 v -5.777388 c 0,-0.271001 0.220369,-0.488398 0.491369,-0.488398 z m -47.020204,0.589651 h 5.366125 v 3.311576 h -5.366125 z m 6.181514,0 h 5.36494 v 3.311576 h -5.36494 z m 6.091575,0 h 5.083511 v 4.607022 H 39.096775 L 37.92343,38.316682 Z m 12.728109,0 h 5.083522 v 3.311576 l -1.176316,1.295446 h -3.907206 z m 5.807186,0 h 5.366415 v 3.311576 h -5.366415 z m 6.182396,0 h 5.366415 v 3.311576 h -5.366415 z"
         style="fill:#666666;stroke-width:0.297803"
         inkscape:label="tram" />
      <g
         id="g9357"
         transform="matrix(0.11444532,0,0,0.11444532,-19.851124,-19.798155)"
         style="fill:#ff0000;fill-opacity:1"
         inkscape:label="pedestrian">
        <circle
           id="path9347"
           style="fill:#ff0000;fill-opacity:1"
           transform="translate(294.11,29.495)"
           cx="278.54956"
           cy="347.52823"
           r="37.123108"
           inkscape:label="body" />
        <path
           id="path9349"
           d="m 516.35,490.41 c 0,0 -30.339,157.53 -36.871,168.19 -5.5865,9.1154 -49.18,80.642 -49.18,80.642 -9.3065,15.26 -0.48739,26.17 9.3724,31.862 8.3938,4.8456 26.437,3.6458 32.403,-6.5301 0,0 48.366,-75.267 53.643,-91.5 3.6534,-11.238 12.143,-57.857 12.143,-57.857 0,0 46.996,48.47 52.143,57.143 6.4876,10.933 18.571,87.143 18.571,87.143 2.8898,13.56 15.822,17.982 29.286,15.714 10.633,-1.7908 21.753,-8.9851 19.286,-22.143 0,0 -10.746,-88.36 -19.286,-102.86 -10.191,-17.302 -65,-76.429 -65,-76.429 l 15.714,-70 c 0,0 10.086,20.446 17.143,29.286 8.0255,10.053 58.571,39.286 58.571,39.286 4.6363,3.1097 15.133,1.3962 19.286,-6.4286 3.3332,-6.2806 3.1763,-16.454 -4.2857,-21.429 0,0 -41.655,-26.151 -51.429,-34.286 -10.87,-9.03 -32.86,-69.27 -32.86,-69.27 -6.8208,-9.3864 -16.151,-19.742 -32.143,-20 -16.119,-0.26028 -24.187,8.6196 -31.429,13.571 0,0 -61.747,45.105 -67.857,54.286 -6.1469,9.236 -17.143,78.571 -17.143,78.571 -1.7236,7.9 1.3621,14.253 10.714,16.429 11.443,2.662 19.645,-4.4634 20.714,-10 0,0 7.0508,-54.765 12.143,-62.857 5.9288,-9.4214 26.346,-20.521 26.346,-20.521 z"
           sodipodi:nodetypes="cssssscsssssccssssscscsssssc"
           style="fill:#ff0000;fill-opacity:1"
           inkscape:connector-curvature="0"
           inkscape:label="head" />
      </g>
      <g
         id="g1388"
         transform="matrix(-0.23780575,0,0,0.23780575,94.58288,10.290258)"
         style="fill:#000000;fill-opacity:1"
         inkscape:label="bicycle"
         sodipodi:insensitive="true">
        <path
           d="m 219.22118,206.07859 30.21517,-5.03353 -19.0427,-25.24904 c -9.87089,8.785 -11.09862,19.33036 -11.17247,30.28257 z m -8.3119,1.84737 c -0.0487,-1.09433 -0.22085,-2.85401 -0.22085,-4.08607 0,-12.49419 3.95961,-24.63581 14.70629,-34.72649 l -11.19215,-13.6787 -17.32358,53.94452 z m -66.49174,-53.68812 0.96031,-3.00194 61.70226,-0.0824 -16.41401,50.79008 -0.70841,-5.29841 h 1.88853 l -0.23706,-3.37177 h -8.25841 l 0.23637,3.1312 h 2.12388 l 0.47169,5.7806 c 0,0 -41.52914,-47.70678 -41.76515,-47.94733 z m -27.32734,48.7902 c 8.286,-6.7182 14.7356,-13.12081 19.38671,-25.93413 7.3409,6.79745 11.52929,16.62925 11.52929,26.74598 0,20.09048 -16.05409,36.47704 -35.73723,36.47704 -19.682808,0 -35.736218,-16.38656 -35.736218,-36.47704 0,-20.09118 16.05341,-36.47738 35.736218,-36.47738 6.28188,0 12.70352,1.85196 17.88156,4.9719 -3.50518,11.30477 -6.9144,17.13537 -17.69868,25.9968 -2.618,0.11276 -4.60834,2.25809 -4.60834,4.81695 0,2.65359 2.11973,4.81726 4.71876,4.81726 2.59935,0 4.52793,-2.16367 4.52793,-4.93738 z m 103.39702,10.80109 c 4.04174,15.37428 18.42056,26.48884 34.3349,26.48884 19.68313,0 35.73758,-16.38655 35.73758,-36.47808 0,-20.09118 -16.05445,-36.47842 -35.73758,-36.47842 -6.28224,0 -13.55066,1.51382 -18.85361,4.68238 l 19.39708,26.28736 c 2.37231,0.0381 4.43786,2.20171 4.43786,4.81695 0,2.65359 -2.12077,4.81726 -4.71944,4.81726 -0.71946,0 -1.4748,-0.18809 -2.11283,-0.49487 z m -87.78531,-49.93807 12.65936,-35.64791 -4.01136,-6.98552 8.02275,-8.9111 h 17.22489 l 0.23638,5.05786 h -15.10172 l -3.06762,3.37175 3.5393,6.503 -4.45062,16.10197 h 61.81784 l 0.94409,-2.9449 c -4.96822,-0.66004 -13.53718,-3.78456 -15.58377,-5.59849 -2.04657,-1.81497 -0.25465,-3.48378 2.0766,-3.56198 12.20111,-0.52902 30.32767,-1.5723 33.7714,-1.58743 3.44272,-0.0163 3.79571,1.75157 1.49067,4.32522 -2.30502,2.5733 -4.31984,4.89053 -13.05273,6.27157 l -2.35919,6.503 14.6276,18.49773 c 6.89505,-4.27273 15.23388,-6.49558 23.33634,-6.49558 24.30837,0 44.13437,20.237 44.13437,45.04964 0,24.8123 -19.826,45.04894 -44.13437,45.04894 -19.9982,0 -37.583,-14.07741 -42.75067,-33.53425 l -13.44162,2.46553 c -0.57556,1.61739 -1.91648,2.85788 -3.51861,3.8286 l 2.39751,11.60661 h 3.06725 l 0.23603,3.13121 -9.67421,0.48113 v -3.37177 h 2.35989 l -2.92233,-11.59993 c -4.34884,-0.72592 -6.62731,-4.52563 -5.33228,-8.29683 l -43.90974,-50.69075 -1.96582,5.43893 c 10.65696,8.56805 17.03581,21.76633 17.03581,35.49258 0,24.8123 -19.82599,45.04894 -44.13436,45.04894 -24.308048,0 -44.134028,-20.23664 -44.134028,-45.04894 0,-24.81264 19.82598,-45.04964 44.134028,-45.04964 7.06862,0 14.30944,1.76074 20.43294,5.10081 z"
           id="path5490"
           style="fill:#000000;fill-opacity:1;fill-rule:evenodd;stroke-width:1.26525"
           inkscape:label="bicycle_path" />
      </g>
    </g>
  </g>
</svg>
