<?xml version="1.0" encoding="utf-8" standalone="no"?>
<!DOCTYPE svg PUBLIC "-//W3C//DTD SVG 1.1//EN"
  "http://www.w3.org/Graphics/SVG/1.1/DTD/svg11.dtd">
<svg xmlns:xlink="http://www.w3.org/1999/xlink" width="123.12pt" height="123.12pt" viewBox="0 0 123.12 123.12" xmlns="http://www.w3.org/2000/svg" version="1.1">
 <metadata>
  <rdf:RDF xmlns:dc="http://purl.org/dc/elements/1.1/" xmlns:cc="http://creativecommons.org/ns#" xmlns:rdf="http://www.w3.org/1999/02/22-rdf-syntax-ns#">
   <cc:Work>
    <dc:type rdf:resource="http://purl.org/dc/dcmitype/StillImage"/>
    <dc:date>2022-02-03T23:46:02.375982</dc:date>
    <dc:format>image/svg+xml</dc:format>
    <dc:creator>
     <cc:Agent>
      <dc:title>Matplotlib v3.5.1, https://matplotlib.org/</dc:title>
     </cc:Agent>
    </dc:creator>
   </cc:Work>
  </rdf:RDF>
 </metadata>
 <defs>
  <style type="text/css">*{stroke-linejoin: round; stroke-linecap: butt}</style>
 </defs>
 <g id="figure_1">
  <g id="patch_1">
   <path d="M 0 123.12 
L 123.12 123.12 
L 123.12 0 
L 0 0 
L 0 123.12 
z
" style="fill: none"/>
  </g>
  <g id="axes_1">
   <g id="patch_2">
    <path d="M 7.2 115.92 
L 115.92 115.92 
L 115.92 7.2 
L 7.2 7.2 
L 7.2 115.92 
z
" style="fill: none"/>
   </g>
   <g id="matplotlib.axis_1"/>
   <g id="matplotlib.axis_2"/>
   <g id="line2d_1">
    <path d="M 37.881435 35.417781 
L 38.613233 35.613829 
L 39.694239 37.100263 
L 40.215953 37.226067 
L 40.855799 36.627484 
L 41.604292 35.748889 
L 42.354293 35.279479 
L 42.998071 35.645814 
L 44.12448 37.935804 
L 44.941376 38.765191 
L 46.086265 39.050564 
L 47.485427 39.055863 
L 48.951335 39.174422 
L 50.319852 39.598469 
L 52.745388 40.778531 
L 53.998738 41.135415 
L 59.428609 41.872952 
L 60.730718 41.885633 
L 64.8834 41.426431 
L 68.896026 41.338145 
L 73.034811 40.748347 
L 77.043985 40.478693 
L 81.164216 39.933262 
L 85.17534 39.812195 
L 87.969261 39.604068 
L 90.697472 39.739343 
L 93.318711 40.118859 
L 94.646102 40.390698 
L 95.96433 40.803227 
L 97.233847 41.38034 
L 104.304075 45.462689 
L 106.216714 47.400715 
L 107.924792 49.387227 
L 108.688172 50.529581 
L 109.313954 51.821491 
L 110.105466 54.485578 
L 110.629867 56.940658 
L 110.842664 58.323603 
L 110.942583 59.872612 
L 110.866136 61.387894 
L 110.60825 62.516333 
L 110.22733 62.938927 
L 109.809401 62.548674 
L 109.425166 61.496367 
L 108.861062 58.610602 
L 108.431726 55.957909 
L 108.116126 54.729485 
L 107.627649 53.482017 
L 106.931058 52.222744 
L 106.073529 51.056106 
L 105.185156 50.168962 
L 104.431108 49.769559 
L 103.938185 49.994065 
L 103.736037 50.826565 
L 103.764584 54.94798 
L 103.523942 56.269456 
L 102.231788 60.191307 
L 102.071175 61.537014 
L 102.147916 62.843157 
L 102.660816 65.424298 
L 103.369689 68.078042 
L 103.954043 69.283399 
L 105.431806 71.352432 
L 105.870313 72.42688 
L 105.836041 73.649034 
L 105.374695 74.976068 
L 104.224276 77.538424 
L 103.945247 78.754863 
L 103.530801 81.452283 
L 103.006747 82.84117 
L 102.244809 84.005151 
L 101.390972 84.803144 
L 100.553617 85.270892 
L 98.756189 85.827529 
L 97.690677 85.99302 
L 96.692118 85.881806 
L 96.060341 85.336103 
L 96.015035 84.377677 
L 96.531246 83.204417 
L 98.137777 80.958738 
L 98.699215 79.888511 
L 99.010027 78.702163 
L 99.132381 77.372814 
L 99.077976 76.000362 
L 98.772154 74.717604 
L 98.145337 73.586399 
L 97.250957 72.59959 
L 96.281762 71.78381 
L 95.454448 71.28061 
L 94.859957 71.293905 
L 94.412001 71.926777 
L 93.329347 74.383138 
L 91.369585 77.807383 
L 89.839707 81.847532 
L 89.109879 82.897268 
L 88.260037 83.515611 
L 87.319383 83.82215 
L 84.257435 84.380808 
L 83.531151 84.170309 
L 83.235702 83.481913 
L 83.424146 82.382374 
L 83.993065 81.100045 
L 86.749166 76.470774 
L 87.205544 75.2016 
L 87.492585 73.857175 
L 87.533266 72.500035 
L 87.28204 71.179854 
L 86.755569 69.950662 
L 86.010231 68.910537 
L 85.094282 68.194726 
L 84.026225 67.902335 
L 82.818245 68.014774 
L 77.606476 69.423623 
L 72.243819 70.034513 
L 71.152823 70.405524 
L 70.393185 71.097119 
L 69.984626 72.167636 
L 69.875732 73.532178 
L 69.981814 75.001385 
L 70.526568 78.936484 
L 70.383778 80.224603 
L 69.963211 81.554378 
L 69.315978 82.828201 
L 68.536169 83.942163 
L 67.681065 84.874695 
L 66.732542 85.678297 
L 65.647189 86.377479 
L 64.461352 86.876552 
L 63.354621 86.981627 
L 62.595798 86.536938 
L 62.390184 85.563328 
L 62.736626 84.274046 
L 64.453465 80.626092 
L 64.497868 79.452104 
L 63.981211 76.569764 
L 63.339227 73.842557 
L 62.976397 73.119548 
L 62.543314 73.026784 
L 62.043035 73.568884 
L 61.498782 74.628286 
L 57.821027 83.568037 
L 57.12658 84.904389 
L 56.306173 86.050353 
L 55.383178 86.895169 
L 54.36183 87.488047 
L 51.901291 88.459819 
L 50.484888 88.863109 
L 49.1323 88.985068 
L 48.095852 88.647572 
L 47.599342 87.847423 
L 47.728597 86.776019 
L 48.395656 85.694948 
L 49.394464 84.770496 
L 51.548508 83.226689 
L 52.446842 82.327836 
L 53.158164 81.235289 
L 53.674228 79.978205 
L 54.012286 78.626945 
L 54.350894 75.866993 
L 54.526122 73.18346 
L 54.519349 71.861856 
L 54.371906 70.530632 
L 54.039702 69.198113 
L 53.51232 67.914747 
L 52.808986 66.747007 
L 51.970059 65.718598 
L 50.128797 63.796931 
L 48.438153 61.580245 
L 47.634773 60.500831 
L 46.758429 59.599434 
L 45.749841 58.877493 
L 43.458801 57.457764 
L 40.237588 54.977136 
L 39.108019 54.598669 
L 37.857143 54.557816 
L 35.164389 55.044535 
L 32.528792 55.570416 
L 31.197174 55.682694 
L 29.829638 55.633382 
L 24.51204 54.846182 
L 21.732899 54.677162 
L 19.0287 54.230465 
L 17.8155 54.211234 
L 16.633969 54.512954 
L 14.243329 55.406067 
L 13.24771 55.327508 
L 12.649249 54.644767 
L 12.564438 53.494884 
L 12.94375 52.169143 
L 13.612587 50.908632 
L 15.198711 48.74867 
L 16.059106 47.743595 
L 17.033195 46.796439 
L 18.137221 45.973153 
L 22.877078 43.349485 
L 22.877078 43.349485 
" clip-path="url(#p8570d31437)" style="fill: none; stroke: #3366cc; stroke-linecap: square"/>
   </g>
   <g id="line2d_2">
    <path d="M 70.040195 62.708356 
L 47.86129 43.623844 
" clip-path="url(#p8570d31437)" style="fill: none; stroke: #00441b; stroke-linecap: square"/>
    <defs>
     <path id="m4286ad07fa" d="M 0 1.25 
C 0.331504 1.25 0.649475 1.118292 0.883883 0.883883 
C 1.118292 0.649475 1.25 0.331504 1.25 0 
C 1.25 -0.331504 1.118292 -0.649475 0.883883 -0.883883 
C 0.649475 -1.118292 0.331504 -1.25 0 -1.25 
C -0.331504 -1.25 -0.649475 -1.118292 -0.883883 -0.883883 
C -1.118292 -0.649475 -1.25 -0.331504 -1.25 0 
C -1.25 0.331504 -1.118292 0.649475 -0.883883 0.883883 
C -0.649475 1.118292 -0.331504 1.25 0 1.25 
z
" style="stroke: #00441b"/>
    </defs>
    <g clip-path="url(#p8570d31437)">
     <use xlink:href="#m4286ad07fa" x="70.040195" y="62.708356" style="fill: #00441b; stroke: #00441b"/>
     <use xlink:href="#m4286ad07fa" x="47.86129" y="43.623844" style="fill: #00441b; stroke: #00441b"/>
    </g>
   </g>
   <g id="line2d_3">
    <path d="M 47.86129 43.623844 
L 39.427583 46.093678 
" clip-path="url(#p8570d31437)" style="fill: none; stroke: #004d1f; stroke-width: 0.818731; stroke-linecap: square"/>
    <defs>
     <path id="md2e3cd4d39" d="M 0 0.25 
C 0.066301 0.25 0.129895 0.223658 0.176777 0.176777 
C 0.223658 0.129895 0.25 0.066301 0.25 0 
C 0.25 -0.066301 0.223658 -0.129895 0.176777 -0.176777 
C 0.129895 -0.223658 0.066301 -0.25 0 -0.25 
C -0.066301 -0.25 -0.129895 -0.223658 -0.176777 -0.176777 
C -0.223658 -0.129895 -0.25 -0.066301 -0.25 0 
C -0.25 0.066301 -0.223658 0.129895 -0.176777 0.176777 
C -0.129895 0.223658 -0.066301 0.25 0 0.25 
z
" style="stroke: #004d1f"/>
    </defs>
    <g clip-path="url(#p8570d31437)">
     <use xlink:href="#md2e3cd4d39" x="47.86129" y="43.623844" style="fill: #004d1f; stroke: #004d1f"/>
     <use xlink:href="#md2e3cd4d39" x="39.427583" y="46.093678" style="fill: #004d1f; stroke: #004d1f"/>
    </g>
   </g>
   <g id="line2d_4">
    <path d="M 39.427583 46.093678 
L 30.952337 45.670204 
" clip-path="url(#p8570d31437)" style="fill: none; stroke: #005723; stroke-width: 0.67032; stroke-linecap: square"/>
    <defs>
     <path id="me7f98d1959" d="M 0 0.25 
C 0.066301 0.25 0.129895 0.223658 0.176777 0.176777 
C 0.223658 0.129895 0.25 0.066301 0.25 0 
C 0.25 -0.066301 0.223658 -0.129895 0.176777 -0.176777 
C 0.129895 -0.223658 0.066301 -0.25 0 -0.25 
C -0.066301 -0.25 -0.129895 -0.223658 -0.176777 -0.176777 
C -0.223658 -0.129895 -0.25 -0.066301 -0.25 0 
C -0.25 0.066301 -0.223658 0.129895 -0.176777 0.176777 
C -0.129895 0.223658 -0.066301 0.25 0 0.25 
z
" style="stroke: #005723"/>
    </defs>
    <g clip-path="url(#p8570d31437)">
     <use xlink:href="#me7f98d1959" x="39.427583" y="46.093678" style="fill: #005723; stroke: #005723"/>
     <use xlink:href="#me7f98d1959" x="30.952337" y="45.670204" style="fill: #005723; stroke: #005723"/>
    </g>
   </g>
   <g id="line2d_5">
    <path d="M 30.952337 45.670204 
L 27.299561 43.865173 
" clip-path="url(#p8570d31437)" style="fill: none; stroke: #006227; stroke-width: 0.548812; stroke-linecap: square"/>
    <defs>
     <path id="m096e2d5cae" d="M 0 0.25 
C 0.066301 0.25 0.129895 0.223658 0.176777 0.176777 
C 0.223658 0.129895 0.25 0.066301 0.25 0 
C 0.25 -0.066301 0.223658 -0.129895 0.176777 -0.176777 
C 0.129895 -0.223658 0.066301 -0.25 0 -0.25 
C -0.066301 -0.25 -0.129895 -0.223658 -0.176777 -0.176777 
C -0.223658 -0.129895 -0.25 -0.066301 -0.25 0 
C -0.25 0.066301 -0.223658 0.129895 -0.176777 0.176777 
C -0.129895 0.223658 -0.066301 0.25 0 0.25 
z
" style="stroke: #006227"/>
    </defs>
    <g clip-path="url(#p8570d31437)">
     <use xlink:href="#m096e2d5cae" x="30.952337" y="45.670204" style="fill: #006227; stroke: #006227"/>
     <use xlink:href="#m096e2d5cae" x="27.299561" y="43.865173" style="fill: #006227; stroke: #006227"/>
    </g>
   </g>
   <g id="line2d_6">
    <path d="M 27.299561 43.865173 
L 26.695483 43.967991 
" clip-path="url(#p8570d31437)" style="fill: none; stroke: #006b2b; stroke-width: 0.449329; stroke-linecap: square"/>
    <defs>
     <path id="m9f9f260dda" d="M 0 0.25 
C 0.066301 0.25 0.129895 0.223658 0.176777 0.176777 
C 0.223658 0.129895 0.25 0.066301 0.25 0 
C 0.25 -0.066301 0.223658 -0.129895 0.176777 -0.176777 
C 0.129895 -0.223658 0.066301 -0.25 0 -0.25 
C -0.066301 -0.25 -0.129895 -0.223658 -0.176777 -0.176777 
C -0.223658 -0.129895 -0.25 -0.066301 -0.25 0 
C -0.25 0.066301 -0.223658 0.129895 -0.176777 0.176777 
C -0.129895 0.223658 -0.066301 0.25 0 0.25 
z
" style="stroke: #006b2b"/>
    </defs>
    <g clip-path="url(#p8570d31437)">
     <use xlink:href="#m9f9f260dda" x="27.299561" y="43.865173" style="fill: #006b2b; stroke: #006b2b"/>
     <use xlink:href="#m9f9f260dda" x="26.695483" y="43.967991" style="fill: #006b2b; stroke: #006b2b"/>
    </g>
   </g>
   <g id="line2d_7">
    <path d="M 26.695483 43.967991 
L 22.352912 42.267044 
" clip-path="url(#p8570d31437)" style="fill: none; stroke: #077331; stroke-width: 0.367879; stroke-linecap: square"/>
    <defs>
     <path id="mf09eeebd9c" d="M 0 0.25 
C 0.066301 0.25 0.129895 0.223658 0.176777 0.176777 
C 0.223658 0.129895 0.25 0.066301 0.25 0 
C 0.25 -0.066301 0.223658 -0.129895 0.176777 -0.176777 
C 0.129895 -0.223658 0.066301 -0.25 0 -0.25 
C -0.066301 -0.25 -0.129895 -0.223658 -0.176777 -0.176777 
C -0.223658 -0.129895 -0.25 -0.066301 -0.25 0 
C -0.25 0.066301 -0.223658 0.129895 -0.176777 0.176777 
C -0.129895 0.223658 -0.066301 0.25 0 0.25 
z
" style="stroke: #077331"/>
    </defs>
    <g clip-path="url(#p8570d31437)">
     <use xlink:href="#mf09eeebd9c" x="26.695483" y="43.967991" style="fill: #077331; stroke: #077331"/>
     <use xlink:href="#mf09eeebd9c" x="22.352912" y="42.267044" style="fill: #077331; stroke: #077331"/>
    </g>
   </g>
   <g id="line2d_8">
    <path d="M 22.352912 42.267044 
L 21.396631 42.36632 
" clip-path="url(#p8570d31437)" style="fill: none; stroke: #107a37; stroke-width: 0.301194; stroke-linecap: square"/>
    <defs>
     <path id="mfbd946fc7e" d="M 0 0.25 
C 0.066301 0.25 0.129895 0.223658 0.176777 0.176777 
C 0.223658 0.129895 0.25 0.066301 0.25 0 
C 0.25 -0.066301 0.223658 -0.129895 0.176777 -0.176777 
C 0.129895 -0.223658 0.066301 -0.25 0 -0.25 
C -0.066301 -0.25 -0.129895 -0.223658 -0.176777 -0.176777 
C -0.223658 -0.129895 -0.25 -0.066301 -0.25 0 
C -0.25 0.066301 -0.223658 0.129895 -0.176777 0.176777 
C -0.129895 0.223658 -0.066301 0.25 0 0.25 
z
" style="stroke: #107a37"/>
    </defs>
    <g clip-path="url(#p8570d31437)">
     <use xlink:href="#mfbd946fc7e" x="22.352912" y="42.267044" style="fill: #107a37; stroke: #107a37"/>
     <use xlink:href="#mfbd946fc7e" x="21.396631" y="42.36632" style="fill: #107a37; stroke: #107a37"/>
    </g>
   </g>
   <g id="line2d_9">
    <path d="M 21.396631 42.36632 
L 21.717803 44.202333 
" clip-path="url(#p8570d31437)" style="fill: none; stroke: #17813d; stroke-width: 0.246597; stroke-linecap: square"/>
    <defs>
     <path id="m301a4d3003" d="M 0 0.25 
C 0.066301 0.25 0.129895 0.223658 0.176777 0.176777 
C 0.223658 0.129895 0.25 0.066301 0.25 0 
C 0.25 -0.066301 0.223658 -0.129895 0.176777 -0.176777 
C 0.129895 -0.223658 0.066301 -0.25 0 -0.25 
C -0.066301 -0.25 -0.129895 -0.223658 -0.176777 -0.176777 
C -0.223658 -0.129895 -0.25 -0.066301 -0.25 0 
C -0.25 0.066301 -0.223658 0.129895 -0.176777 0.176777 
C -0.129895 0.223658 -0.066301 0.25 0 0.25 
z
" style="stroke: #17813d"/>
    </defs>
    <g clip-path="url(#p8570d31437)">
     <use xlink:href="#m301a4d3003" x="21.396631" y="42.36632" style="fill: #17813d; stroke: #17813d"/>
     <use xlink:href="#m301a4d3003" x="21.717803" y="44.202333" style="fill: #17813d; stroke: #17813d"/>
    </g>
   </g>
   <g id="line2d_10">
    <path d="M 21.717803 44.202333 
L 21.592869 43.004714 
" clip-path="url(#p8570d31437)" style="fill: none; stroke: #208843; stroke-width: 0.201897; stroke-linecap: square"/>
    <defs>
     <path id="m6833b1091a" d="M 0 0.25 
C 0.066301 0.25 0.129895 0.223658 0.176777 0.176777 
C 0.223658 0.129895 0.25 0.066301 0.25 0 
C 0.25 -0.066301 0.223658 -0.129895 0.176777 -0.176777 
C 0.129895 -0.223658 0.066301 -0.25 0 -0.25 
C -0.066301 -0.25 -0.129895 -0.223658 -0.176777 -0.176777 
C -0.223658 -0.129895 -0.25 -0.066301 -0.25 0 
C -0.25 0.066301 -0.223658 0.129895 -0.176777 0.176777 
C -0.129895 0.223658 -0.066301 0.25 0 0.25 
z
" style="stroke: #208843"/>
    </defs>
    <g clip-path="url(#p8570d31437)">
     <use xlink:href="#m6833b1091a" x="21.717803" y="44.202333" style="fill: #208843; stroke: #208843"/>
     <use xlink:href="#m6833b1091a" x="21.592869" y="43.004714" style="fill: #208843; stroke: #208843"/>
    </g>
   </g>
   <g id="line2d_11">
    <path d="M 99.299764 62.708356 
L 99.059544 58.966725 
L 98.342826 55.286532 
L 97.16138 51.728204 
L 95.534605 48.350171 
L 93.489212 45.207899 
L 91.058788 42.352984 
L 88.283238 39.832303 
L 85.208138 37.687246 
L 81.883981 35.953036 
L 78.36535 34.658147 
L 74.710019 33.823841 
L 70.97801 33.463819 
L 67.230602 33.583991 
L 63.529328 34.182384 
L 59.934962 35.249173 
L 56.506523 36.766841 
L 53.300308 38.710468 
L 50.36896 41.04814 
L 47.760614 43.741472 
L 45.518098 46.746239 
L 43.678233 50.013104 
L 42.271232 53.488425 
L 41.320196 57.115136 
L 40.840742 60.833688 
L 40.840742 64.583023 
L 41.320196 68.301575 
L 42.271232 71.928286 
L 43.678233 75.403607 
L 45.518098 78.670472 
L 47.760614 81.675239 
L 50.36896 84.368571 
L 53.300308 86.706243 
L 56.506523 88.64987 
L 59.934962 90.167538 
L 63.529328 91.234327 
L 67.230602 91.83272 
L 70.97801 91.952892 
L 74.710019 91.59287 
L 78.36535 90.758564 
L 81.883981 89.463675 
L 85.208138 87.729465 
L 88.283238 85.584408 
L 91.058788 83.063728 
L 93.489212 80.208812 
L 95.534605 77.06654 
L 97.16138 73.688507 
L 98.342826 70.13018 
L 99.059544 66.449986 
L 99.299764 62.708356 
" clip-path="url(#p8570d31437)" style="fill: none; stroke: #00441b; stroke-linecap: square"/>
   </g>
   <g id="line2d_12">
    <path d="M 56.649207 43.623844 
L 56.577059 42.50007 
L 56.361797 41.394749 
L 56.006958 40.326029 
L 55.518367 39.311459 
L 54.904046 38.367698 
L 54.174084 37.510243 
L 53.340467 36.753173 
L 52.416881 36.10892 
L 51.418492 35.588061 
L 50.361695 35.19915 
L 49.26384 34.948572 
L 48.142956 34.840442 
L 47.017447 34.876534 
L 45.905794 35.056258 
L 44.82625 35.376661 
L 43.796541 35.832482 
L 42.833576 36.416238 
L 41.953165 37.118342 
L 41.169765 37.927266 
L 40.49624 38.829728 
L 39.943649 39.81091 
L 39.521066 40.854699 
L 39.235429 41.943958 
L 39.091428 43.0608 
L 39.091428 44.186888 
L 39.235429 45.30373 
L 39.521066 46.392989 
L 39.943649 47.436779 
L 40.49624 48.41796 
L 41.169765 49.320422 
L 41.953165 50.129346 
L 42.833576 50.83145 
L 43.796541 51.415206 
L 44.82625 51.871027 
L 45.905794 52.19143 
L 47.017447 52.371154 
L 48.142956 52.407247 
L 49.26384 52.299116 
L 50.361695 52.048538 
L 51.418492 51.659627 
L 52.416881 51.138768 
L 53.340467 50.494515 
L 54.174084 49.737445 
L 54.904046 48.87999 
L 55.518367 47.936229 
L 56.006958 46.92166 
L 56.361797 45.85294 
L 56.577059 44.747618 
L 56.649207 43.623844 
" clip-path="url(#p8570d31437)" style="fill: none; stroke: #004d1f; stroke-width: 0.818731; stroke-linecap: square"/>
   </g>
   <g id="line2d_13">
    <path d="M 47.913402 46.093678 
L 47.843733 45.008536 
L 47.635872 43.941211 
L 47.29323 42.90923 
L 46.821435 41.929538 
L 46.228234 41.018221 
L 45.523365 40.190242 
L 44.718404 39.459198 
L 43.826568 38.837092 
L 42.862501 38.334138 
L 41.842032 37.958596 
L 40.781918 37.716632 
L 39.699566 37.612219 
L 38.612749 37.647071 
L 37.53931 37.820616 
L 36.496877 38.130005 
L 35.502566 38.570157 
L 34.572704 39.133845 
L 33.722559 39.811813 
L 32.96609 40.592929 
L 32.315719 41.464368 
L 31.782124 42.411819 
L 31.374067 43.419727 
L 31.098249 44.471541 
L 30.959198 45.54999 
L 30.959198 46.637367 
L 31.098249 47.715816 
L 31.374067 48.76763 
L 31.782124 49.775537 
L 32.315719 50.722989 
L 32.96609 51.594427 
L 33.722559 52.375543 
L 34.572704 53.053512 
L 35.502566 53.6172 
L 36.496877 54.057352 
L 37.53931 54.36674 
L 38.612749 54.540285 
L 39.699566 54.575138 
L 40.781918 54.470724 
L 41.842032 54.22876 
L 42.862501 53.853218 
L 43.826568 53.350265 
L 44.718404 52.728159 
L 45.523365 51.997115 
L 46.228234 51.169136 
L 46.821435 50.257819 
L 47.29323 49.278126 
L 47.635872 48.246145 
L 47.843733 47.178821 
L 47.913402 46.093678 
" clip-path="url(#p8570d31437)" style="fill: none; stroke: #005723; stroke-width: 0.67032; stroke-linecap: square"/>
   </g>
   <g id="line2d_14">
    <path d="M 35.026757 45.670204 
L 34.993306 45.149178 
L 34.893503 44.636708 
L 34.728985 44.141208 
L 34.502456 43.670814 
L 34.217633 43.23325 
L 33.879194 42.8357 
L 33.492696 42.484693 
L 33.064486 42.185992 
L 32.601594 41.944502 
L 32.111622 41.764188 
L 31.602614 41.64801 
L 31.082928 41.597876 
L 30.561098 41.61461 
L 30.045693 41.697937 
L 29.545174 41.846489 
L 29.067761 42.057825 
L 28.621293 42.328477 
L 28.2131 42.654 
L 27.849885 43.029049 
L 27.537613 43.447465 
L 27.28141 43.902379 
L 27.085484 44.38632 
L 26.953052 44.891343 
L 26.886287 45.409155 
L 26.886287 45.931253 
L 26.953052 46.449064 
L 27.085484 46.954087 
L 27.28141 47.438029 
L 27.537613 47.892943 
L 27.849885 48.311359 
L 28.2131 48.686408 
L 28.621293 49.011931 
L 29.067761 49.282582 
L 29.545174 49.493919 
L 30.045693 49.64247 
L 30.561098 49.725797 
L 31.082928 49.742531 
L 31.602614 49.692398 
L 32.111622 49.57622 
L 32.601594 49.395906 
L 33.064486 49.154415 
L 33.492696 48.855714 
L 33.879194 48.504707 
L 34.217633 48.107158 
L 34.502456 47.669594 
L 34.728985 47.199199 
L 34.893503 46.703699 
L 34.993306 46.191229 
L 35.026757 45.670204 
" clip-path="url(#p8570d31437)" style="fill: none; stroke: #006227; stroke-width: 0.548812; stroke-linecap: square"/>
   </g>
   <g id="line2d_15">
    <path d="M 27.912327 43.865173 
L 27.907296 43.786814 
L 27.892286 43.709742 
L 27.867544 43.635222 
L 27.833476 43.564478 
L 27.79064 43.498671 
L 27.739741 43.438883 
L 27.681614 43.386093 
L 27.617214 43.341171 
L 27.547598 43.304852 
L 27.47391 43.277734 
L 27.397358 43.260262 
L 27.319201 43.252722 
L 27.240721 43.255239 
L 27.163208 43.26777 
L 27.087933 43.290112 
L 27.016133 43.321895 
L 26.948987 43.362599 
L 26.887598 43.411556 
L 26.832973 43.467961 
L 26.786009 43.530888 
L 26.747478 43.599304 
L 26.718012 43.672086 
L 26.698095 43.748038 
L 26.688054 43.825913 
L 26.688054 43.904433 
L 26.698095 43.982309 
L 26.718012 44.058261 
L 26.747478 44.131042 
L 26.786009 44.199458 
L 26.832973 44.262385 
L 26.887598 44.31879 
L 26.948987 44.367747 
L 27.016133 44.408451 
L 27.087933 44.440235 
L 27.163208 44.462576 
L 27.240721 44.475108 
L 27.319201 44.477624 
L 27.397358 44.470085 
L 27.47391 44.452612 
L 27.547598 44.425494 
L 27.617214 44.389176 
L 27.681614 44.344253 
L 27.739741 44.291464 
L 27.79064 44.231675 
L 27.833476 44.165868 
L 27.867544 44.095124 
L 27.892286 44.020604 
L 27.907296 43.943532 
L 27.912327 43.865173 
" clip-path="url(#p8570d31437)" style="fill: none; stroke: #006b2b; stroke-width: 0.449329; stroke-linecap: square"/>
   </g>
   <g id="line2d_16">
    <path d="M 31.359295 43.967991 
L 31.321005 43.371596 
L 31.206764 42.784994 
L 31.018448 42.217816 
L 30.75915 41.679377 
L 30.433125 41.178516 
L 30.045729 40.723458 
L 29.603322 40.321676 
L 29.113168 39.979766 
L 28.583316 39.703342 
L 28.022466 39.496944 
L 27.439827 39.363961 
L 26.844965 39.306575 
L 26.247649 39.32573 
L 25.657687 39.42111 
L 25.084765 39.591151 
L 24.538291 39.833058 
L 24.027238 40.142862 
L 23.559998 40.515473 
L 23.144242 40.944776 
L 22.786797 41.423719 
L 22.493533 41.944439 
L 22.269265 42.498386 
L 22.117675 43.076463 
L 22.041253 43.66918 
L 22.041253 44.266803 
L 22.117675 44.859519 
L 22.269265 45.437597 
L 22.493533 45.991543 
L 22.786797 46.512263 
L 23.144242 46.991207 
L 23.559998 47.420509 
L 24.027238 47.793121 
L 24.538291 48.102924 
L 25.084765 48.344832 
L 25.657687 48.514872 
L 26.247649 48.610252 
L 26.844965 48.629407 
L 27.439827 48.572022 
L 28.022466 48.439038 
L 28.583316 48.23264 
L 29.113168 47.956216 
L 29.603322 47.614306 
L 30.045729 47.212524 
L 30.433125 46.757466 
L 30.75915 46.256606 
L 31.018448 45.718166 
L 31.206764 45.150988 
L 31.321005 44.564386 
L 31.359295 43.967991 
" clip-path="url(#p8570d31437)" style="fill: none; stroke: #077331; stroke-width: 0.367879; stroke-linecap: square"/>
   </g>
   <g id="line2d_17">
    <path d="M 23.314331 42.267044 
L 23.306438 42.1441 
L 23.282888 42.023175 
L 23.244068 41.906255 
L 23.190615 41.795258 
L 23.123407 41.692009 
L 23.043547 41.598201 
L 22.952347 41.515376 
L 22.851305 41.444893 
L 22.742078 41.387909 
L 22.626462 41.345362 
L 22.506354 41.317948 
L 22.383727 41.306118 
L 22.260593 41.310067 
L 22.138976 41.329729 
L 22.020871 41.364782 
L 21.908218 41.41465 
L 21.802867 41.478514 
L 21.706548 41.555326 
L 21.620842 41.643824 
L 21.547157 41.742556 
L 21.486702 41.849899 
L 21.440471 41.964093 
L 21.409221 42.08326 
L 21.393467 42.205445 
L 21.393467 42.328642 
L 21.409221 42.450827 
L 21.440471 42.569995 
L 21.486702 42.684188 
L 21.547157 42.791532 
L 21.620842 42.890263 
L 21.706548 42.978762 
L 21.802867 43.055574 
L 21.908218 43.119438 
L 22.020871 43.169306 
L 22.138976 43.204359 
L 22.260593 43.224021 
L 22.383727 43.22797 
L 22.506354 43.21614 
L 22.626462 43.188726 
L 22.742078 43.146178 
L 22.851305 43.089195 
L 22.952347 43.018712 
L 23.043547 42.935887 
L 23.123407 42.842079 
L 23.190615 42.738829 
L 23.244068 42.627833 
L 23.282888 42.510912 
L 23.306438 42.389987 
L 23.314331 42.267044 
" clip-path="url(#p8570d31437)" style="fill: none; stroke: #107a37; stroke-width: 0.301194; stroke-linecap: square"/>
   </g>
   <g id="line2d_18">
    <path d="M 23.260523 42.36632 
L 23.245221 42.127971 
L 23.199565 41.893535 
L 23.124304 41.666863 
L 23.020675 41.451675 
L 22.89038 41.251506 
L 22.735557 41.069643 
L 22.558749 40.90907 
L 22.362859 40.772426 
L 22.151104 40.661953 
L 21.92696 40.579466 
L 21.694108 40.526319 
L 21.456372 40.503385 
L 21.217655 40.511041 
L 20.981876 40.549159 
L 20.752908 40.617116 
L 20.53451 40.713794 
L 20.330267 40.837607 
L 20.143535 40.986522 
L 19.977378 41.158092 
L 19.834525 41.349502 
L 19.717322 41.557607 
L 19.627694 41.778992 
L 19.567111 42.010021 
L 19.536569 42.2469 
L 19.536569 42.48574 
L 19.567111 42.722619 
L 19.627694 42.953648 
L 19.717322 43.175032 
L 19.834525 43.383138 
L 19.977378 43.574548 
L 20.143535 43.746118 
L 20.330267 43.895032 
L 20.53451 44.018845 
L 20.752908 44.115524 
L 20.981876 44.18348 
L 21.217655 44.221599 
L 21.456372 44.229254 
L 21.694108 44.20632 
L 21.92696 44.153173 
L 22.151104 44.070686 
L 22.362859 43.960214 
L 22.558749 43.823569 
L 22.735557 43.662997 
L 22.89038 43.481133 
L 23.020675 43.280964 
L 23.124304 43.065777 
L 23.199565 42.839105 
L 23.245221 42.604669 
L 23.260523 42.36632 
" clip-path="url(#p8570d31437)" style="fill: none; stroke: #17813d; stroke-width: 0.246597; stroke-linecap: square"/>
   </g>
   <g id="line2d_19">
    <path d="M 22.92192 44.202333 
L 22.912034 44.048354 
L 22.882539 43.896903 
L 22.833919 43.750467 
L 22.766973 43.611451 
L 22.682799 43.482137 
L 22.582779 43.364649 
L 22.468557 43.260916 
L 22.342008 43.17264 
L 22.205209 43.101273 
L 22.060407 43.047984 
L 21.90998 43.01365 
L 21.756396 42.998834 
L 21.60218 43.003779 
L 21.449861 43.028405 
L 21.301943 43.072307 
L 21.160852 43.134763 
L 21.028907 43.214749 
L 20.908273 43.310951 
L 20.800932 43.42179 
L 20.708646 43.545445 
L 20.63293 43.679886 
L 20.575028 43.822905 
L 20.53589 43.972155 
L 20.516159 44.125185 
L 20.516159 44.279481 
L 20.53589 44.43251 
L 20.575028 44.58176 
L 20.63293 44.72478 
L 20.708646 44.859221 
L 20.800932 44.982876 
L 20.908273 45.093714 
L 21.028907 45.189916 
L 21.160852 45.269902 
L 21.301943 45.332359 
L 21.449861 45.37626 
L 21.60218 45.400886 
L 21.756396 45.405831 
L 21.90998 45.391015 
L 22.060407 45.356681 
L 22.205209 45.303393 
L 22.342008 45.232025 
L 22.468557 45.143749 
L 22.582779 45.040016 
L 22.682799 44.922528 
L 22.766973 44.793214 
L 22.833919 44.654198 
L 22.882539 44.507762 
L 22.912034 44.356312 
L 22.92192 44.202333 
" clip-path="url(#p8570d31437)" style="fill: none; stroke: #208843; stroke-width: 0.201897; stroke-linecap: square"/>
   </g>
  </g>
 </g>
 <defs>
  <clipPath id="p8570d31437">
   <rect x="7.2" y="7.2" width="108.72" height="108.72"/>
  </clipPath>
 </defs>
</svg>
