<?xml version="1.0" encoding="UTF-8" standalone="no"?>
<!-- Created with Inkscape (http://www.inkscape.org/) -->
<svg xmlns:dc="http://purl.org/dc/elements/1.1/" xmlns:cc="http://creativecommons.org/ns#" xmlns:rdf="http://www.w3.org/1999/02/22-rdf-syntax-ns#" xmlns:svg="http://www.w3.org/2000/svg" xmlns="http://www.w3.org/2000/svg" xmlns:sodipodi="http://sodipodi.sourceforge.net/DTD/sodipodi-0.dtd" xmlns:inkscape="http://www.inkscape.org/namespaces/inkscape" version="1.1" id="svg3020" xml:space="preserve" width="800" height="800" viewBox="0 0 800 800" sodipodi:docname="hand-pencil-publicdomainvectors.org.svg" inkscape:version="0.92.4 (5da689c313, 2019-01-14)"><metadata id="metadata3026"><rdf:RDF><cc:Work rdf:about=""><dc:format>image/svg+xml</dc:format><dc:type rdf:resource="http://purl.org/dc/dcmitype/StillImage"/><dc:title/></cc:Work></rdf:RDF></metadata><defs id="defs3024"><clipPath clipPathUnits="userSpaceOnUse" id="clipPath3036"><path d="M 0,600 H 600 V 0 H 0 Z" id="path3034" inkscape:connector-curvature="0"/></clipPath></defs><sodipodi:namedview pagecolor="#ffffff" bordercolor="#666666" borderopacity="1" objecttolerance="10" gridtolerance="10" guidetolerance="10" inkscape:pageopacity="0" inkscape:pageshadow="2" inkscape:window-width="1920" inkscape:window-height="1018" id="namedview3022" showgrid="false" inkscape:zoom="0.89768817" inkscape:cx="416.94915" inkscape:cy="398.30508" inkscape:window-x="-8" inkscape:window-y="-8" inkscape:window-maximized="1" inkscape:current-layer="g3028"/><g id="g3028" inkscape:groupmode="layer" inkscape:label="hand-pencil-publicdomainvectors.org" transform="matrix(1.3333333,0,0,-1.3333333,0,800)"><g id="g3030"><g id="g3032" clip-path="url(#clipPath3036)"><path d="m 208.233,255.576 c 0.21,-0.748 0.42,-1.48 0.561,-2.207 0.122,-0.734 0.261,-1.435 0.309,-2.117 0.038,-0.686 0.081,-1.326 0.068,-1.922 -0.035,-0.6 -0.092,-1.144 -0.144,-1.621 -0.033,-0.475 -0.184,-0.893 -0.256,-1.227 -0.17,-0.671 -0.304,-1.039 -0.304,-1.039 0,0 -0.123,0.391 -0.28,1.045 -0.09,0.326 -0.148,0.717 -0.286,1.158 -0.134,0.442 -0.285,0.936 -0.422,1.467 -0.17,0.524 -0.353,1.094 -0.548,1.694 -0.183,0.597 -0.446,1.214 -0.653,1.861 -0.227,0.643 -0.511,1.295 -0.742,1.971 -0.269,0.664 -0.543,1.341 -0.818,2.019 -0.292,0.67 -0.55,1.358 -0.845,2.02 -0.286,0.668 -0.565,1.326 -0.838,1.963 -0.271,0.642 -0.535,1.263 -0.784,1.855 -0.246,0.596 -0.48,1.162 -0.695,1.682 -0.222,0.519 -0.402,1.015 -0.575,1.447 -0.179,0.428 -0.31,0.82 -0.434,1.135 -0.234,0.636 -0.359,1.017 -0.359,1.017 0,0 0.33,-0.228 0.839,-0.687 0.519,-0.453 1.209,-1.143 1.976,-2.024 0.75,-0.892 1.58,-1.974 2.34,-3.218 0.394,-0.616 0.759,-1.276 1.11,-1.957 0.372,-0.672 0.661,-1.403 0.986,-2.112 0.285,-0.728 0.558,-1.466 0.794,-2.203 m -6.768,-16.168 c 0.216,-0.224 0.331,-0.344 0.331,-0.344 0,0 -0.149,0.071 -0.429,0.204 -0.28,0.136 -0.705,0.334 -1.171,0.695 -0.247,0.164 -0.516,0.357 -0.776,0.6 -0.264,0.238 -0.573,0.486 -0.841,0.794 -0.577,0.598 -1.176,1.317 -1.746,2.157 -0.575,0.836 -1.152,1.775 -1.673,2.804 -0.525,1.03 -1.031,2.139 -1.475,3.307 -0.238,0.58 -0.445,1.18 -0.65,1.789 -0.22,0.606 -0.403,1.227 -0.591,1.854 -0.38,1.25 -0.694,2.537 -1,3.824 -0.277,1.293 -0.542,2.586 -0.748,3.867 -0.214,1.279 -0.389,2.543 -0.526,3.77 -0.144,1.224 -0.242,2.412 -0.32,3.537 -0.079,1.127 -0.112,2.193 -0.138,3.179 -0.056,1.969 -0.004,3.614 0.049,4.764 0.02,0.574 0.062,1.027 0.075,1.334 0.012,0.15 0.019,0.266 0.024,0.346 -0.005,0.082 -0.007,0.127 -0.007,0.127 0,0 0.066,-0.131 0.15,-0.453 0.079,-0.299 0.209,-0.739 0.338,-1.297 0.273,-1.12 0.645,-2.715 1.042,-4.625 0.843,-3.817 1.803,-8.897 2.932,-13.901 0.563,-2.502 1.177,-4.984 1.841,-7.271 0.327,-1.151 0.678,-2.244 1.039,-3.27 0.359,-1.027 0.729,-1.984 1.108,-2.851 0.395,-0.86 0.78,-1.637 1.17,-2.303 0.175,-0.35 0.408,-0.617 0.58,-0.91 0.175,-0.291 0.364,-0.531 0.544,-0.746 0.179,-0.213 0.326,-0.422 0.475,-0.582 0.155,-0.159 0.286,-0.291 0.393,-0.399 m -11.7,-0.015 c 0.225,-0.17 0.345,-0.262 0.345,-0.262 0,0 -0.145,0.039 -0.416,0.109 -0.266,0.086 -0.688,0.156 -1.176,0.36 -0.248,0.097 -0.522,0.209 -0.821,0.328 -0.303,0.119 -0.597,0.302 -0.933,0.474 -0.66,0.358 -1.386,0.821 -2.097,1.43 -0.732,0.588 -1.446,1.324 -2.134,2.164 -0.648,0.861 -1.306,1.809 -1.822,2.867 -1.081,2.096 -1.794,4.51 -2.191,6.932 -0.794,4.867 -0.354,9.715 0.275,13.232 0.3,1.764 0.656,3.213 0.915,4.225 0.262,1.012 0.443,1.586 0.443,1.586 0,0 0.073,-0.598 0.137,-1.641 0.067,-1.043 0.136,-2.527 0.183,-4.291 0.151,-3.523 0.208,-8.176 0.95,-12.635 0.177,-1.115 0.405,-2.216 0.683,-3.275 0.274,-1.066 0.602,-2.09 0.982,-3.053 0.363,-0.974 0.824,-1.857 1.275,-2.695 0.488,-0.809 0.973,-1.576 1.504,-2.227 0.264,-0.326 0.521,-0.638 0.792,-0.914 0.261,-0.283 0.504,-0.57 0.768,-0.793 0.503,-0.486 0.976,-0.882 1.377,-1.203 0.397,-0.326 0.738,-0.547 0.961,-0.718 m -22.994,-12.758 c 0.165,-1.59 0.122,-4.252 -0.493,-7.858 -0.861,-5.041 -2.2,-7.89 -2.877,-8.306 -1.211,-0.741 -2.21,-1.137 -2.996,-1.198 -0.008,0.805 0.054,1.534 0.133,2.11 0.382,2.785 1.303,8.443 2.181,13.713 0.401,0.019 0.782,0.06 1.143,0.129 1.155,0.214 2.108,0.685 2.909,1.41 m -3.731,17.984 c -0.442,0.283 -0.946,0.565 -1.444,0.947 -0.27,0.198 -0.554,0.393 -0.817,0.639 -0.269,0.234 -0.562,0.457 -0.818,0.734 -0.272,0.262 -0.542,0.538 -0.784,0.846 -0.26,0.295 -0.501,0.613 -0.734,0.945 -0.249,0.321 -0.431,0.694 -0.653,1.045 -0.17,0.381 -0.39,0.739 -0.539,1.137 -0.349,0.776 -0.568,1.615 -0.741,2.461 -0.187,0.846 -0.254,1.717 -0.28,2.574 -0.009,0.86 0.032,1.711 0.132,2.532 0.123,0.814 0.259,1.605 0.454,2.341 0.208,0.731 0.416,1.426 0.674,2.041 0.249,0.618 0.52,1.168 0.79,1.639 0.174,0.287 0.338,0.545 0.501,0.773 0.36,-1.543 0.609,-3.283 0.887,-5.269 0.578,-4.133 1.276,-9.098 3.372,-15.385 m -21.973,26.524 c 0.005,0.005 0.012,0.013 0.017,0.021 h 0.008 c 5.075,0.535 14.522,1.531 16.621,-2.732 0.409,-0.832 0.718,-1.741 0.971,-2.735 -0.276,-0.234 -0.562,-0.517 -0.863,-0.873 -0.365,-0.443 -0.748,-0.974 -1.089,-1.597 -0.708,-1.227 -1.303,-2.795 -1.647,-4.545 -0.147,-0.877 -0.278,-1.797 -0.275,-2.743 0.01,-0.941 0.066,-1.904 0.256,-2.851 0.205,-0.943 0.476,-1.879 0.883,-2.746 0.376,-0.877 0.896,-1.672 1.453,-2.385 0.286,-0.352 0.561,-0.701 0.885,-0.994 0.299,-0.317 0.623,-0.59 0.944,-0.846 0.633,-0.521 1.288,-0.941 1.917,-1.267 0.608,-0.362 1.226,-0.573 1.747,-0.797 0.135,-0.045 0.252,-0.082 0.378,-0.125 0.18,-0.518 0.366,-1.045 0.564,-1.582 -2.644,0.093 -5.006,0.166 -7.116,0.232 -7.276,0.229 -11.693,0.369 -14.157,0.881 -2.795,2.055 -4.839,5.537 -5.647,9.738 -1.186,6.155 0.366,12.864 4.15,17.946 m 36.026,16.316 c -2.54,-0.332 -5.14,-0.721 -7.741,-1.17 l 21.307,16.584 c 0.617,-0.003 0.966,-0.005 0.966,-0.005 l -0.092,0.685 49.378,38.435 c 0.282,0.204 0.549,0.408 0.786,0.613 l 189.799,147.736 c 0.634,-1.371 1.497,-2.921 2.544,-4.499 z M 439.271,479.578 192.234,288.848 c -3.568,-0.174 -7.781,-0.514 -12.275,-1.035 l 254.919,196.813 c 1.273,-1.77 2.757,-3.524 4.393,-5.048 M 200.996,288.865 c -0.006,0 -0.013,0 -0.018,10e-4 -1.444,0.126 -3.582,0.156 -6.208,0.08 l 245.628,189.641 c 0.801,-0.665 1.63,-1.271 2.484,-1.789 z m 66.285,42.144 c -0.253,1.122 -0.639,2.084 -1.134,2.883 l 4.38,3.403 c 0.698,-5.325 0.763,-14.841 0.095,-17.435 -1.928,-2.818 -4.268,-5.461 -6.904,-7.929 3.222,6.175 4.753,13.823 3.563,19.078 m 186.477,154.42 c -1.962,-1.677 -4.424,-3.71 -7.016,-5.662 -5.1,2.068 -10.251,9.577 -11.688,13.423 1.454,1.242 4.134,3.533 6.636,5.688 0.623,-1.298 1.39,-2.561 1.639,-2.96 1.228,-1.97 5.131,-7.697 10.429,-10.489 m 2.14,1.858 c -0.286,-0.253 -0.603,-0.531 -0.938,-0.822 -5.883,2.8 -10.531,10.046 -12.098,13.424 0.415,0.359 0.818,0.708 1.201,1.04 2.924,-6.354 8.603,-11.231 11.835,-13.642 m 12.785,10.71 c -3.213,-2.789 -7.308,-6.108 -9.341,-7.744 -2.772,1.975 -9.308,7.168 -11.765,13.73 l 9.659,8.271 c 0.666,-2.595 2.137,-5.404 4.032,-7.876 2.313,-3.014 4.939,-5.23 7.415,-6.381 M 132.119,271.883 c -1.431,2.947 -1.263,6.443 -0.599,7.734 1.317,2.559 4.028,7.444 7.462,13.627 11.702,21.082 31.286,56.366 35.768,71.526 5.287,17.876 7.478,25.276 44.466,28.783 21.441,2.032 39.723,5.748 54.413,8.734 10.345,2.102 18.517,3.764 23.961,4.015 6.872,0.319 11.737,-1.491 14.699,-3.157 l -50.923,-39.638 c -0.025,0.758 -0.002,1.597 0.123,2.445 0.087,0.676 0.242,1.344 0.428,1.964 0.08,0.316 0.2,0.605 0.303,0.887 0.097,0.285 0.213,0.545 0.332,0.778 0.213,0.485 0.435,0.867 0.598,1.132 0.16,0.269 0.25,0.425 0.25,0.425 0,0 -0.127,-0.127 -0.349,-0.347 -0.228,-0.218 -0.548,-0.536 -0.889,-0.963 -0.181,-0.205 -0.367,-0.438 -0.541,-0.699 -0.181,-0.258 -0.385,-0.526 -0.553,-0.829 -0.363,-0.591 -0.713,-1.254 -0.995,-1.949 -0.592,-1.384 -0.948,-2.877 -1.101,-4.025 -0.04,-0.272 -0.067,-0.523 -0.089,-0.752 l -7.503,-5.841 c -0.008,0.011 -0.015,0.02 -0.024,0.03 -0.028,0.049 -0.057,0.1 -0.088,0.154 -0.066,0.105 -0.135,0.221 -0.21,0.344 -0.17,0.212 -0.311,0.616 -0.494,0.988 -0.181,0.386 -0.3,0.853 -0.47,1.327 -0.106,0.502 -0.275,1.019 -0.35,1.586 -0.046,0.281 -0.093,0.568 -0.141,0.859 -0.03,0.295 -0.06,0.594 -0.09,0.894 -0.078,0.604 -0.071,1.226 -0.109,1.849 0.013,0.621 -0.01,1.249 0.036,1.864 0.025,0.618 0.071,1.225 0.141,1.81 0.046,0.592 0.154,1.151 0.226,1.692 0.097,0.532 0.195,1.038 0.299,1.502 0.122,0.457 0.21,0.889 0.331,1.254 0.122,0.366 0.211,0.695 0.314,0.953 0.208,0.517 0.327,0.814 0.327,0.814 0,0 -0.161,-0.277 -0.442,-0.761 -0.14,-0.246 -0.277,-0.557 -0.452,-0.909 -0.177,-0.353 -0.327,-0.768 -0.518,-1.215 -0.171,-0.453 -0.345,-0.949 -0.521,-1.477 -0.153,-0.533 -0.346,-1.092 -0.481,-1.686 -0.157,-0.587 -0.295,-1.203 -0.413,-1.834 -0.139,-0.626 -0.209,-1.278 -0.316,-1.926 -0.055,-0.653 -0.157,-1.306 -0.169,-1.958 -0.015,-0.327 -0.026,-0.651 -0.041,-0.971 0.006,-0.323 0.011,-0.643 0.018,-0.956 -0.007,-0.63 0.094,-1.243 0.135,-1.829 0.112,-0.583 0.175,-1.143 0.326,-1.655 0.161,-0.521 0.246,-0.972 0.474,-1.433 0.102,-0.224 0.197,-0.434 0.283,-0.627 0.047,-0.097 0.09,-0.189 0.133,-0.277 0.026,-0.045 0.05,-0.085 0.075,-0.126 l -5.871,-4.57 c -0.107,0.036 -0.217,0.078 -0.334,0.146 -0.164,0.088 -0.355,0.155 -0.537,0.295 -0.186,0.127 -0.398,0.243 -0.597,0.426 -0.209,0.164 -0.427,0.346 -0.637,0.573 -0.442,0.419 -0.868,0.973 -1.307,1.584 -0.416,0.634 -0.844,1.332 -1.219,2.109 -0.776,1.543 -1.435,3.329 -1.963,5.167 -1.076,3.682 -1.65,7.558 -1.897,10.47 -0.122,1.459 -0.162,2.681 -0.155,3.536 0.006,0.855 0.06,1.346 0.06,1.346 0,0 -0.121,-0.475 -0.248,-1.33 -0.13,-0.854 -0.263,-2.081 -0.347,-3.561 -0.165,-2.96 -0.146,-6.935 0.427,-10.923 0.283,-1.993 0.705,-3.989 1.329,-5.846 0.297,-0.931 0.676,-1.821 1.074,-2.66 0.429,-0.83 0.872,-1.616 1.402,-2.299 0.248,-0.351 0.524,-0.67 0.803,-0.966 0.228,-0.271 0.49,-0.499 0.74,-0.719 l -7.226,-5.624 c -3.603,-1.311 -7.98,-2.424 -12.231,-2.927 -1.688,-0.077 -3.351,-0.169 -4.721,-0.275 -0.044,-0.003 -0.081,-0.003 -0.124,-0.006 -2.133,0.019 -4.132,0.251 -5.856,0.77 l -0.411,0.124 c -0.186,0.09 -0.366,0.176 -0.566,0.273 -0.361,0.165 -0.701,0.422 -1.08,0.645 -0.377,0.233 -0.767,0.476 -1.173,0.727 -0.39,0.276 -0.781,0.587 -1.191,0.894 -0.843,0.588 -1.641,1.337 -2.489,2.091 -0.438,0.363 -0.823,0.798 -1.237,1.213 -0.404,0.427 -0.839,0.837 -1.233,1.292 -0.776,0.92 -1.607,1.829 -2.328,2.83 -0.769,0.967 -1.454,1.995 -2.137,3.008 -0.356,0.497 -0.641,1.031 -0.96,1.539 -0.303,0.516 -0.636,1.011 -0.899,1.531 -0.555,1.023 -1.1,2.016 -1.539,2.993 -0.482,0.96 -0.847,1.904 -1.205,2.772 -0.353,0.869 -0.597,1.693 -0.857,2.414 -0.198,0.737 -0.369,1.378 -0.512,1.906 -0.194,1.086 -0.306,1.707 -0.306,1.707 0,0 0.043,-0.628 0.117,-1.729 0.085,-0.55 0.188,-1.217 0.306,-1.982 0.18,-0.748 0.335,-1.614 0.596,-2.531 0.264,-0.914 0.532,-1.918 0.912,-2.943 0.338,-1.045 0.779,-2.111 1.232,-3.222 0.213,-0.561 0.494,-1.101 0.748,-1.665 0.268,-0.554 0.504,-1.138 0.812,-1.687 0.585,-1.118 1.18,-2.26 1.866,-3.351 0.636,-1.124 1.396,-2.17 2.112,-3.228 0.362,-0.528 0.773,-1.012 1.153,-1.512 0.392,-0.493 0.755,-1.001 1.181,-1.445 0.822,-0.914 1.603,-1.819 2.459,-2.578 0.417,-0.389 0.814,-0.778 1.217,-1.136 0.428,-0.335 0.84,-0.66 1.235,-0.972 0.404,-0.304 0.762,-0.632 1.16,-0.875 0.381,-0.24 0.741,-0.467 1.082,-0.683 -0.332,-5.366 -2.421,-12.558 -6.606,-18.48 l -10.344,-8.053 -0.012,0.087 c 0,0 -0.372,-0.076 -1.023,-0.208 -0.327,-0.067 -0.727,-0.169 -1.193,-0.194 -0.465,-0.026 -0.997,-0.141 -1.58,-0.121 -0.582,0.018 -1.228,-0.043 -1.904,0.054 -0.343,0.033 -0.695,0.066 -1.054,0.1 -0.358,0.053 -0.723,0.131 -1.098,0.197 -0.756,0.107 -1.512,0.366 -2.307,0.564 -0.768,0.278 -1.578,0.512 -2.349,0.866 -0.79,0.312 -1.554,0.696 -2.312,1.071 -0.746,0.403 -1.491,0.792 -2.183,1.227 -0.701,0.417 -1.368,0.847 -1.991,1.271 -0.633,0.414 -1.205,0.846 -1.748,1.225 -1.066,0.79 -1.941,1.472 -2.55,1.956 -0.607,0.486 -0.954,0.766 -0.954,0.766 0,0 0.283,-0.344 0.777,-0.947 0.496,-0.598 1.216,-1.451 2.109,-2.456 0.459,-0.49 0.94,-1.041 1.487,-1.589 0.537,-0.558 1.119,-1.135 1.745,-1.713 0.615,-0.59 1.297,-1.156 1.989,-1.738 0.709,-0.56 1.434,-1.137 2.211,-1.651 0.753,-0.554 1.58,-1.004 2.376,-1.491 0.837,-0.414 1.642,-0.883 2.493,-1.201 0.419,-0.17 0.831,-0.35 1.243,-0.503 0.422,-0.133 0.834,-0.263 1.236,-0.39 0.097,-0.034 0.192,-0.059 0.287,-0.088 L 159.58,284.277 c -9.932,-2.416 -18.593,-5.849 -22.056,-10.498 -1.115,-1.498 -2.067,-3.117 -2.848,-4.814 -1.043,0.603 -1.903,1.574 -2.557,2.918 m -15.95,-45.313 0.881,2.371 19.125,14.766 c 0.819,-1.141 1.752,-2.158 2.783,-3.043 l -21.233,-16.496 c -0.202,0.035 -0.425,0.141 -0.676,0.393 -0.681,0.679 -0.916,1.775 -0.88,2.009 m -3.901,3.85 c -0.702,0.775 -1.068,1.865 -0.955,2.846 l 0.197,1.699 21.279,16.428 c 0.555,-2.385 1.429,-4.555 2.578,-6.452 l -19.906,-15.367 -1.401,-0.027 c -0.814,-0.014 -1.424,0.469 -1.792,0.873 m -2.196,9.725 22.05,17.166 c 10e-4,-1.446 0.116,-2.883 0.352,-4.301 l -22.561,-17.418 -0.204,0.054 c -0.409,0.114 -0.918,0.317 -1.027,0.633 -0.264,0.772 0.501,2.594 1.39,3.866 M 89.653,214.113 c -0.946,0.067 -1.864,0.809 -2.465,1.69 5.039,5.861 11.423,13.258 17.119,19.843 0.045,-0.261 0.104,-0.523 0.191,-0.779 0.306,-0.906 0.975,-2.031 2.429,-2.834 0.191,-1.674 0.915,-3.304 2.07,-4.58 0.822,-0.906 1.796,-1.564 2.855,-1.943 0.209,-1.272 0.795,-2.588 1.681,-3.643 0.222,-0.263 0.462,-0.496 0.711,-0.713 -7.546,-2.994 -16.531,-6.494 -23.8,-9.207 -0.55,0.567 -1.069,1.358 -0.791,2.166 m 81.578,-14.367 c -3.939,0.027 -6.86,1.108 -8.684,3.215 -0.903,1.043 -1.448,2.225 -1.762,3.4 0.157,0.016 0.309,0.024 0.471,0.051 1.112,0.209 2.335,0.723 3.682,1.549 3.175,1.943 4.748,11.734 4.852,16.301 0.103,4.629 -0.923,5.865 -1.703,6.392 -1.474,0.996 -2.984,1.614 -4.101,1.981 0.011,0.062 0.023,0.131 0.034,0.191 9.322,-1.613 19.512,-2.885 27.417,-3.808 0.037,-0.377 0.079,-0.799 0.126,-1.266 -0.243,-16.59 -10.899,-28.074 -20.332,-28.006 m 28.636,21.399 c 0.528,-1.186 1.143,-3.135 1.617,-6.053 0.934,-5.733 0.547,-10.662 -0.4,-11.672 -0.988,-1.055 -2.314,-2.236 -3.584,-2.67 -0.097,0.463 -0.169,0.895 -0.219,1.27 -0.424,3.197 -1.125,9.744 -1.755,15.83 2.055,0.638 3.462,1.703 4.341,3.295 m 2.264,-27.938 c -1.86,1.246 -3.021,3 -3.75,4.717 1.219,0.41 2.849,1.349 4.85,3.48 2.615,2.789 1.847,12.014 0.505,17.369 -1.449,5.778 -3.242,6.385 -3.832,6.584 -2.06,0.696 -3.914,0.692 -5.196,0.538 -0.106,1.054 -0.199,1.988 -0.278,2.777 0.822,-0.096 1.621,-0.188 2.368,-0.274 l 1.745,-0.197 c 4.771,-0.549 12.774,-0.763 22.041,-1.012 2.518,-0.068 5.138,-0.14 7.82,-0.218 3.54,-17.164 -5.071,-31.901 -15.568,-34.703 -4.405,-1.182 -8.007,-0.862 -10.705,0.939 m 18.572,38.397 c -9.163,0.246 -17.078,0.459 -21.656,0.982 l -1.748,0.201 c -10.63,1.215 -32.26,3.686 -45.244,6.998 1.381,-0.047 2.899,-0.096 4.573,-0.148 2.683,-0.084 5.772,-0.18 9.332,-0.313 l 2.269,-0.084 -0.849,2.106 c -3.262,8.09 -4.112,14.175 -4.797,19.066 -0.523,3.74 -0.936,6.693 -2.229,9.318 -2.367,4.811 -9.303,5.153 -15.171,4.762 12.766,7.322 45.422,10.854 55.408,9.975 19.859,-1.748 58.512,10.32 73.88,33.203 l 0.162,0.24 0.095,0.276 c 1.325,3.874 0.969,20.231 -0.932,24.219 l -1.992,-0.949 54.283,39.007 9.349,7.262 c 2.757,-1.731 8.501,-5.047 13.403,-8.275 26.042,-17.149 80.228,-52.834 94.037,-62.772 26.271,-18.908 40.92,-26.161 53.844,-32.561 7.738,-3.832 15.059,-7.459 23.96,-13.181 6.659,-33.373 -26.21,-85.163 -66.02,-104.063 -29.084,21.531 -52.956,34.375 -65.608,35.273 -3.374,0.241 -6.573,0.463 -9.616,0.674 -41.363,2.875 -53.845,3.743 -86.391,19.862 -14.897,7.379 -48.098,8.269 -72.342,8.922 m 18.719,-10.698 c 0.325,-0.578 0.71,-1.519 1.077,-2.984 1.175,-4.684 1.207,-10.481 0.061,-11.699 -0.971,-1.035 -1.86,-1.727 -2.661,-2.073 -0.116,0.487 -0.195,0.932 -0.244,1.309 -0.335,2.521 -0.892,7.742 -1.387,12.533 1.561,0.569 2.581,1.51 3.154,2.914 m 1.84,-22.031 c -1.505,1.006 -2.397,2.471 -2.927,3.859 0.854,0.346 1.959,1.051 3.299,2.479 1.838,1.961 1.351,8.85 0.293,13.068 -0.708,2.824 -1.617,4.442 -2.703,4.809 -1.354,0.457 -2.562,0.326 -3.481,0.049 -0.149,1.48 -0.274,2.73 -0.36,3.601 8.477,-0.308 17.309,-0.763 25.582,-1.558 2.993,-13.321 -3.608,-24.83 -11.69,-26.993 -3.309,-0.882 -6.008,-0.654 -8.013,0.686 m 284.62,74.135 -0.292,1.322 -1.136,0.736 c -9.523,6.192 -17.179,9.981 -25.285,13.995 -12.733,6.305 -27.166,13.452 -53.068,32.095 -13.889,9.997 -68.108,45.702 -94.163,62.861 l -0.062,0.041 c -4.455,2.934 -8.06,5.307 -10.475,6.902 l 107.717,83.692 c 6.164,4.541 11.733,9.644 12.489,10.343 1.301,1.037 11.402,9.103 14.701,12.528 l 0.019,0.019 c 3.992,3.657 1.441,11.022 -2.648,16.353 -4.156,5.418 -9.164,8.33 -13.074,7.603 -0.92,-0.173 -1.752,-0.539 -2.471,-1.091 -0.33,-0.252 -0.628,-0.546 -0.935,-0.919 l -10.391,-8.898 -0.031,0.107 -3.964,-3.528 c -2.759,-2.456 -10.77,-9.295 -12.339,-10.634 L 315.938,407.384 c -3.786,2.341 -9.93,4.834 -18.603,4.432 -3.163,-0.146 -7.228,-0.707 -13.183,-1.816 -3.519,-0.656 -7.455,-1.457 -11.641,-2.307 -5.031,-1.023 -10.735,-2.182 -16.741,-3.301 -13.619,-2.539 -25.4,-4.237 -37.075,-5.343 -6.284,-0.597 -11.519,-1.293 -16.005,-2.129 -9.41,-1.754 -15.732,-4.138 -20.503,-7.73 -7.13,-5.367 -9.773,-12.858 -12.73,-22.856 -4.311,-14.577 -23.71,-49.527 -35.317,-70.438 -3.449,-6.213 -6.174,-11.123 -7.528,-13.753 -1.673,-3.252 -1.445,-8.582 0.542,-12.672 1.112,-2.287 2.726,-4.086 4.702,-5.25 -0.012,-0.051 -0.024,-0.102 -0.036,-0.153 l -25.729,-20.025 -0.261,-0.348 c -0.093,-0.121 -0.237,-0.316 -0.412,-0.576 l -0.07,-0.08 C 85.489,220.1 75.189,208.088 74.734,207.334 l -1.22,-2.021 1.909,-1.391 c 0.633,-0.461 1.247,-0.662 2.676,-0.395 2.487,0.465 8.655,2.631 21.288,7.481 8.274,3.176 16.488,6.435 19.764,7.742 l 0.789,0.146 23.158,17.995 c 3.618,-1.514 9.245,-3.002 16.754,-4.43 -1.074,-6.338 -2.762,-16.44 -3.324,-20.529 -0.627,-4.567 0.423,-8.694 2.959,-11.621 2.62,-3.026 6.561,-4.577 11.716,-4.616 1.034,-0.006 2.09,0.09 3.14,0.285 7.291,1.36 13.938,7.319 17.767,15.643 0.507,-4.75 0.896,-8.148 1.158,-10.135 0.677,-5.111 3.027,-9.248 6.615,-11.646 3.244,-2.166 7.275,-2.822 11.978,-1.946 0.661,0.124 1.341,0.278 2.02,0.459 8.791,2.35 16.815,11.51 18.897,24.11 0.328,-3.07 0.644,-5.877 0.863,-7.535 0.547,-4.127 2.455,-7.471 5.372,-9.42 3.005,-2.008 6.785,-2.444 11.305,-1.231 9.234,2.467 17.376,14.272 15.06,29.328 11.708,-1.349 19.968,-3.273 25.217,-5.873 33.523,-16.603 46.258,-17.486 88.458,-20.421 3.041,-0.209 6.237,-0.43 9.606,-0.67 11.611,-0.829 35.447,-13.905 63.763,-34.983 l 1.571,-1.172 1.783,0.817 c 20.593,9.408 40.362,27.457 54.24,49.519 13.946,22.17 19.729,44.836 15.866,62.186" style="fill:#000000;fill-opacity:1;fill-rule:nonzero;stroke:none" id="path3038" inkscape:connector-curvature="0"/></g></g></g></svg>