<?xml version="1.0" encoding="UTF-8" standalone="no"?>
<!-- Created with Inkscape (http://www.inkscape.org/) -->
<svg xmlns:dc="http://purl.org/dc/elements/1.1/" xmlns:cc="http://creativecommons.org/ns#" xmlns:rdf="http://www.w3.org/1999/02/22-rdf-syntax-ns#" xmlns:svg="http://www.w3.org/2000/svg" xmlns="http://www.w3.org/2000/svg" xmlns:sodipodi="http://sodipodi.sourceforge.net/DTD/sodipodi-0.dtd" xmlns:inkscape="http://www.inkscape.org/namespaces/inkscape" version="1.1" id="svg915" width="938.64935" height="543.06573" viewBox="0 0 938.64935 543.06573" sodipodi:docname="tapir.svg" inkscape:version="0.92.4 (5da689c313, 2019-01-14)">
  <metadata id="metadata921">
    <rdf:RDF>
      <cc:Work rdf:about="">
        <dc:format>image/svg+xml</dc:format>
        <dc:type rdf:resource="http://purl.org/dc/dcmitype/StillImage"/>
        <dc:title/>
      </cc:Work>
    </rdf:RDF>
  </metadata>
  <defs id="defs919"/>
  <sodipodi:namedview pagecolor="#ffffff" bordercolor="#666666" borderopacity="1" objecttolerance="10" gridtolerance="10" guidetolerance="10" inkscape:pageopacity="0" inkscape:pageshadow="2" inkscape:window-width="1920" inkscape:window-height="1001" id="namedview917" showgrid="false" fit-margin-top="0" fit-margin-left="0" fit-margin-right="0" fit-margin-bottom="0" inkscape:zoom="0.57305743" inkscape:cx="254.9249" inkscape:cy="321.42037" inkscape:window-x="-9" inkscape:window-y="-9" inkscape:window-maximized="1" inkscape:current-layer="svg915"/>
  <g id="g1588">
    <g transform="translate(-944.68206,-9.0382846)" id="g1561">
      <path style="fill:#333333;fill-opacity:1;stroke:#000000;stroke-width:1px;stroke-linecap:butt;stroke-linejoin:miter;stroke-opacity:1" d="m 1713.1791,41.117168 c 0,0 16.7958,-24.430361 27.9204,-16.359617 11.1245,8.070745 19.4134,8.288873 -1.9632,43.189389 -21.3765,34.90052 -28.5748,-10.470155 -28.5748,-10.470155 z" id="path1487" inkscape:connector-curvature="0"/>
      <path style="fill:#ffffff;fill-opacity:1;stroke:#000000;stroke-width:1px;stroke-linecap:butt;stroke-linejoin:miter;stroke-opacity:1" d="m 1186.4137,512.6774 c 0,0 24.0614,2.46784 16.3494,-6.78655 -7.712,-9.2544 -27.7632,-10.7968 -27.7632,-10.7968" id="path1511" inkscape:connector-curvature="0"/>
      <path style="fill:#ffffff;fill-opacity:1;stroke:#000000;stroke-width:1px;stroke-linecap:butt;stroke-linejoin:miter;stroke-opacity:1" d="m 1163.5862,518.23004 c 0,0 28.3801,8.63744 31.4649,-1.23392 3.0848,-9.87135 -25.6038,-22.51903 -25.6038,-22.51903 l -17.8919,-1.23392" id="path1509" inkscape:connector-curvature="0"/>
      <path style="fill:#ffffff;stroke:#000000;stroke-width:1px;stroke-linecap:butt;stroke-linejoin:miter;stroke-opacity:1" d="m 1160.1929,503.73149 c 0,0 12.6477,6.78655 14.1901,19.43423 1.5424,12.64768 -29.6461,-0.42143 -29.6461,-0.42143 l 0.032,-18.70432" id="path1507" inkscape:connector-curvature="0"/>
      <path style="fill:#1a1a1a;stroke:#000000;stroke-width:1px;stroke-linecap:butt;stroke-linejoin:miter;stroke-opacity:1" d="m 1136.8843,300.03537 c 0,0 4.3626,28.79293 -19.6315,72.85483 -23.9941,44.0619 11.3426,88.77818 32.7192,99.46647 21.3766,10.68828 37.0818,24.86662 37.0818,24.86662 0,0 -14.3965,2.61753 -25.7391,8.07074 -11.3427,5.45321 -16.5778,17.45026 -16.5778,17.45026 l -72.4185,-71.76419 c 0,0 -14.1784,-10.0339 -17.6684,-39.26308 -3.4901,-29.22918 15.9233,-32.71923 6.5438,-53.65954 -9.3795,-20.94031 30.1017,-72.6367 30.1017,-72.6367 z" id="path1497" inkscape:connector-curvature="0"/>
      <path style="fill:#ffffff;fill-opacity:1;stroke:#000000;stroke-width:1px;stroke-linecap:butt;stroke-linejoin:miter;stroke-opacity:1" d="m 1439.21,491.55195 c 0,0 25.0847,0.43626 9.1614,-9.16139 -15.9234,-9.59764 -20.5041,-10.03389 -20.5041,-10.03389" id="path1517" inkscape:connector-curvature="0"/>
      <path style="fill:#ffffff;fill-opacity:1;stroke:#000000;stroke-width:1px;stroke-linecap:butt;stroke-linejoin:miter;stroke-opacity:1" d="m 1403.8733,472.5748 c 0,0 8.9433,23.9941 15.7052,23.9941 6.762,0 38.3906,5.88946 24.4304,-8.507 -13.9602,-14.39646 -25.7391,-18.32277 -25.7391,-18.32277 z" id="path1515" inkscape:connector-curvature="0"/>
      <path style="fill:#ffffff;stroke:#000000;stroke-width:1px;stroke-linecap:butt;stroke-linejoin:miter;stroke-opacity:1" d="m 1383.8055,483.04495 c 0,0 17.8865,23.77598 27.266,14.83272 9.3795,-8.94326 -7.1982,-25.30287 -7.1982,-25.30287 z" id="path1513" inkscape:connector-curvature="0"/>
      <path style="fill:#ffffff;fill-opacity:1;stroke:#000000;stroke-width:1px;stroke-linecap:butt;stroke-linejoin:miter;stroke-opacity:1" d="m 1532.3507,494.49668 c 0,0 21.2675,4.47163 22.3582,-0.32719 1.0906,-4.79882 -2.0722,-10.36109 -5.6713,-12.43331 -3.5992,-2.07222 -24.9757,-9.37952 -28.1386,-8.72513 -3.1628,0.65438 10.7974,21.15844 10.7974,21.15844" id="path1525" inkscape:connector-curvature="0"/>
      <path style="fill:#ffffff;stroke:#000000;stroke-width:1px;stroke-linecap:butt;stroke-linejoin:miter;stroke-opacity:1" d="m 1492.7264,488.29653 c 0,0 2.6221,13.57312 17.2749,12.64768 14.6528,-0.92544 35.0124,4.01024 29.7683,-4.93568 -5.2442,-8.94592 -19.1258,-17.42912 -19.1258,-17.42912" id="path1521" inkscape:connector-curvature="0"/>
      <path style="fill:#ffffff;stroke:#000000;stroke-width:1px;stroke-linecap:butt;stroke-linejoin:miter;stroke-opacity:1" d="m 1468.0558,482.44637 c 0,0 6.3239,13.8816 17.1206,14.96128 10.7968,1.07968 16.041,-1.85088 16.041,-10.0256 0,-8.17472 -7.4035,-19.27999 -7.4035,-19.27999" id="path1519" inkscape:connector-curvature="0"/>
      <path style="fill:#1a1a1a;fill-opacity:1;stroke:#000000;stroke-width:1px;stroke-linecap:butt;stroke-linejoin:miter;stroke-opacity:1" d="m 1401.2557,305.48858 -30.5379,111.68165 c 0,0 -12.6515,18.32277 1.3087,37.51805 13.9602,19.19529 11.779,28.35667 11.779,28.35667 l 24.4303,-0.87251 c 0,0 27.9204,3.05379 28.7929,-4.79882 0.8726,-7.85262 -12.6514,-6.10759 -14.8327,-14.83272 -2.1813,-8.72513 -22.2491,-48.86072 27.0479,-92.05011 49.297,-43.18939 -1.3087,-102.08401 -1.3087,-102.08401 z" id="path1499" inkscape:connector-curvature="0"/>
      <path style="fill:#ffffff;stroke:#000000;stroke-width:1px;stroke-linecap:butt;stroke-linejoin:miter;stroke-opacity:1" d="m 1029.0889,523.16572 12.9562,18.81727 c 0,0 11.7222,1.23392 9.8713,-8.63743 -1.8508,-9.87136 -21.2851,-14.49856 -21.2851,-14.49856 z" id="path1505" inkscape:connector-curvature="0"/>
      <path style="fill:#ffffff;stroke:#000000;stroke-width:1px;stroke-linecap:butt;stroke-linejoin:miter;stroke-opacity:1" d="m 1003.1766,524.09116 16.041,23.44447 c 0,0 28.0716,0.61696 21.2851,-9.56287 -6.7866,-10.17984 -15.424,-20.97664 -15.424,-20.97664" id="path1503" inkscape:connector-curvature="0"/>
      <path style="fill:#ffffff;stroke:#000000;stroke-width:1px;stroke-linecap:butt;stroke-linejoin:miter;stroke-opacity:1" d="m 980.3491,533.03708 c 0,0 9.56288,17.58335 17.27487,18.20031 7.71203,0.61696 21.90203,0.92544 21.28513,-3.0848 -0.617,-4.01024 -15.7325,-24.06143 -15.7325,-24.06143" id="path1501" inkscape:connector-curvature="0"/>
      <path style="fill:#333333;fill-opacity:1;stroke:#000000;stroke-width:1px;stroke-linecap:butt;stroke-linejoin:miter;stroke-opacity:1" d="m 945.18239,230.72678 16.65792,-14.19007 c 0,0 -6.78656,50.5907 24.67839,95.0118 31.4649,44.42111 -42.57023,73.41822 -31.46495,115.98844 11.10527,42.57023 25.29535,105.50013 25.29535,105.50013 0,0 24.0614,-0.61696 26.5293,-3.70176 2.4678,-3.0848 32.0819,-1.23392 32.0819,-6.78656 0,-5.55264 -24.6784,-9.2544 -24.6784,-53.05854 0,-43.80415 -15.42401,-36.40063 41.9533,-96.86269 57.3772,-60.46206 58.9196,-70.64189 58.9196,-70.64189 0,0 60.4621,26.52927 93.4694,28.99711 33.0074,2.46784 106.7341,-12.95616 111.0528,-12.3392 4.3187,0.61696 111.0527,-4.31872 111.0527,-4.31872 0,0 18.2004,52.75006 12.9562,93.16093 -5.2442,40.41087 24.3699,74.96061 24.3699,74.96061 0,0 16.3494,-8.94591 22.8275,-1.5424 6.4781,7.40352 8.329,10.7968 8.329,10.7968 0,0 24.0614,-3.0848 24.9869,-6.78656 0.9254,-3.70176 4.3187,-0.61696 4.3187,-0.61696 0,0 9.2544,0 8.6374,-6.47807 -0.617,-6.47808 -18.8173,4.93567 -29.6141,-27.14623 -10.7968,-32.08191 -20.9766,-28.68863 -1.2339,-99.63901 19.7427,-70.95038 20.6682,-59.8451 20.6682,-59.8451 0,0 28.3801,-8.94592 41.3363,-32.69887 12.9561,-23.75295 26.5292,-53.36702 66.3232,-55.2179 39.7939,-1.85088 41.3363,-1.5424 51.2076,8.02048 9.8714,9.56287 45.3466,24.36991 73.4182,24.98687 28.0717,0.61696 49.6653,13.57311 54.9095,14.19007 5.2441,0.61696 5.5526,-3.70175 16.3494,-1.23391 10.7968,2.46783 12.6477,11.72223 12.6477,11.72223 0,0 14.19,-12.03071 27.1462,-1.5424 12.9561,10.48832 29.6141,-44.72958 -29.3056,-102.7238 0,0 -7.4035,-21.5936 -39.7939,-35.16671 -32.3904,-13.57312 -51.8246,-42.261746 -53.984,-50.282223 -2.1593,-8.020478 -28.6886,-5.552638 -28.6886,-5.552638 0,0 3.7017,-47.814384 -14.8071,-49.665263 -18.5087,-1.85088 -28.6886,23.444472 -28.6886,23.444472 0,0 -5.5526,-24.061431 -61.079,-28.99711 -55.5264,-4.9356779 -112.9036,10.488317 -165.3452,27.763191 -52.4416,17.274874 -199.895,29.61407 -228.8921,17.274874 C 1190.7324,43.171007 1039.5772,76.486836 992.07134,128.92842 944.56543,181.37 945.18239,230.72678 945.18239,230.72678 Z" id="path1468" inkscape:connector-curvature="0"/>
      <path style="fill:none;stroke:#000000;stroke-width:1px;stroke-linecap:butt;stroke-linejoin:miter;stroke-opacity:1" d="m 1843.1674,260.95781 c 0,0 8.2889,-13.96021 -7.4163,-17.88651 -15.7053,-3.92631 -15.7053,-3.92631 -15.7053,-3.92631 0,0 -8.9432,-3.27193 -8.9432,-6.32572" id="path1470" inkscape:connector-curvature="0"/>
      <path style="fill:#333333;fill-opacity:1;stroke:#000000;stroke-width:1px;stroke-linecap:butt;stroke-linejoin:miter;stroke-opacity:1" d="m 1685.2257,112.2705 c 0,0 0.6169,-8.32895 -8.946,-21.59359 -9.5628,-13.264635 -1.2339,-51.207662 -1.2339,-51.207662 0,0 6.8319,-19.946775 23.3006,-23.327762 16.4686,-3.380988 21.5222,19.480304 20.1951,49.548553 -1.3271,30.068249 -17.3595,43.046881 -19.3226,48.500081" id="path1472" inkscape:connector-curvature="0"/>
      <path style="fill:#000000;stroke:#000000;stroke-width:1px;stroke-linecap:butt;stroke-linejoin:miter;stroke-opacity:1" d="m 1697.7191,37.309888 c 0,0 13.7273,-3.701759 8.1747,30.231029 -5.5526,33.932793 -14.4985,39.485423 -14.4985,39.485423 0,0 3.856,-6.47807 1.6966,-12.493432 -2.1594,-6.015358 -10.1798,-33.315829 -2.6221,-45.500784 7.5578,-12.184956 7.2493,-11.722236 7.2493,-11.722236 z" id="path1485" inkscape:connector-curvature="0"/>
      <path style="fill:#ffffff;stroke:#000000;stroke-width:1px;stroke-linecap:butt;stroke-linejoin:miter;stroke-opacity:1" d="m 1746.1164,143.41931 c 0,0 7.1983,3.9263 10.6883,1.30876 3.4901,-2.61753 23.9941,3.0538 19.4134,15.70524 -26.3935,5.01695 -30.1017,-17.014 -30.1017,-17.014 z" id="path1489" inkscape:connector-curvature="0"/>
      <ellipse style="opacity:0.98000004;vector-effect:none;fill:#000000;fill-opacity:1;stroke:#000000;stroke-width:0.08000001;stroke-miterlimit:4;stroke-dasharray:none;stroke-opacity:1;paint-order:markers stroke fill" id="path1491" cx="1744.1796" cy="-308.91797" rx="5.3939786" ry="7.4163752" transform="matrix(0.9659293,0.25880607,-0.25883202,0.96592235,0,0)"/>
      <path style="fill:none;stroke:#000000;stroke-width:1px;stroke-linecap:butt;stroke-linejoin:miter;stroke-opacity:1" d="m 1526.9755,291.18884 c 0,0 1.5424,-23.13599 -4.9357,-32.08191" id="path1493" inkscape:connector-curvature="0"/>
      <path style="fill:none;stroke:#000000;stroke-width:1px;stroke-linecap:butt;stroke-linejoin:miter;stroke-opacity:1" d="m 1430.7297,314.32483 c 0,0 -13.1144,-21.59676 1.3912,-34.79351" id="path1495" inkscape:connector-curvature="0"/>
      <path style="opacity:0.98000004;vector-effect:none;fill:#ffffff;fill-opacity:1;stroke:#000000;stroke-width:0.08;stroke-miterlimit:4;stroke-dasharray:none;stroke-opacity:1;paint-order:markers stroke fill" d="m 1199.2786,329.061 c -17.6544,-3.21549 -44.4468,-11.6134 -69.5662,-21.80512 l -5.1647,-2.09547 -2.724,-9.49867 c -10.9725,-38.26123 -25.9244,-67.59612 -40.6404,-79.7346 -5.449,-4.49454 -10.2249,-6.95095 -16.4323,-8.45168 -6.7786,-1.63882 -9.1157,-2.65065 -15.0144,-6.50048 -5.5179,-3.60132 -15.2973,-13.32073 -20.7582,-20.63092 -8.8683,-11.87147 -16.463,-24.75352 -25.5586,-43.35208 -6.91182,-14.13305 -7.05368,-12.04709 1.2788,-18.80421 25.4951,-20.675056 72.9016,-41.162442 124.4071,-53.764249 31.0331,-7.592859 55.0057,-10.944892 74.3485,-10.395977 9.5234,0.270257 10.9102,0.459113 16.5608,2.255266 3.3919,1.078169 8.6669,2.357212 11.7222,2.842317 40.1049,6.367573 152.0477,-2.921461 205.7586,-17.073889 5.2596,-1.385861 10.0766,-2.554023 10.7044,-2.595916 1.0016,-0.06684 1.469,1.548331 3.8162,13.188467 3.2286,16.011091 7.0164,30.896846 11.9457,46.946139 4.5857,14.930532 5.2592,18.712412 4.8163,27.043292 -0.8975,16.88192 -8.4446,30.55838 -29.8258,54.04913 -15.0508,16.53576 -17.1438,19.31102 -20.4202,27.07591 -5.9545,14.11234 -13.0311,46.98753 -19.2653,89.49985 -1.3925,9.49555 -2.7308,17.43918 -2.9739,17.65251 -0.4474,0.39248 -65.7211,3.07438 -74.0604,3.04292 -2.5594,-0.01 -12.8156,1.3276 -23.6535,3.08406 -43.7984,7.09827 -57.3287,8.66918 -77.3279,8.978 -13.2771,0.20503 -16.3355,0.0722 -21.9728,-0.9546 z" id="path1535" inkscape:connector-curvature="0"/>
    </g>
  </g>
</svg>