<?xml version="1.0" encoding="UTF-8" standalone="no"?>
<!-- Created with Inkscape (http://www.inkscape.org/) -->

<svg
   xmlns:dc="http://purl.org/dc/elements/1.1/"
   xmlns:cc="http://creativecommons.org/ns#"
   xmlns:rdf="http://www.w3.org/1999/02/22-rdf-syntax-ns#"
   xmlns:svg="http://www.w3.org/2000/svg"
   xmlns="http://www.w3.org/2000/svg"
   xmlns:sodipodi="http://sodipodi.sourceforge.net/DTD/sodipodi-0.dtd"
   xmlns:inkscape="http://www.inkscape.org/namespaces/inkscape"
   id="svg3356"
   version="1.1"
   inkscape:version="0.91 r13725"
   width="874.6875"
   height="463.125"
   viewBox="0 0 874.6875 463.125"
   sodipodi:docname="Palaeotherium.svg">
  <metadata
     id="metadata3362">
    <rdf:RDF>
      <cc:Work
         rdf:about="">
        <dc:format>image/svg+xml</dc:format>
        <dc:type
           rdf:resource="http://purl.org/dc/dcmitype/StillImage" />
        <dc:title></dc:title>
      </cc:Work>
    </rdf:RDF>
  </metadata>
  <defs
     id="defs3360" />
  <sodipodi:namedview
     pagecolor="#ffffff"
     bordercolor="#666666"
     borderopacity="1"
     objecttolerance="10"
     gridtolerance="10"
     guidetolerance="10"
     inkscape:pageopacity="0"
     inkscape:pageshadow="2"
     inkscape:window-width="1600"
     inkscape:window-height="837"
     id="namedview3358"
     showgrid="false"
     inkscape:zoom="1.4466937"
     inkscape:cx="437.34375"
     inkscape:cy="231.5625"
     inkscape:window-x="-8"
     inkscape:window-y="-8"
     inkscape:window-maximized="1"
     inkscape:current-layer="svg3356" />
  <path
     style="fill:#000000"
     d="m 535.94114,460.45332 c -3.52144,-1.43823 -6.74346,-3.16644 -7.16002,-3.84048 -0.6134,-0.9925 -1.65829,-1.0094 -5.49525,-0.089 -4.1547,0.9967 -5.85031,0.87952 -13.77638,-0.95203 l -9.03853,-2.08862 -7.05653,-7.29956 c -3.8811,-4.01476 -8.04131,-8.70084 -9.2449,-10.4135 -1.2036,-1.71268 -3.16146,-4.00621 -4.35081,-5.09675 -4.55974,-4.18092 -15.35777,-28.6246 -24.80089,-56.1422 -2.30029,-6.70312 -6.65662,-17.25 -9.68073,-23.4375 -9.74749,-19.94389 -18.7746,-38.91328 -18.7746,-39.45256 0,-0.28879 -0.58016,-1.10523 -1.28924,-1.81432 -1.09399,-1.09399 -1.38915,0.0165 -1.94894,7.33259 -0.72551,9.48207 -2.45987,16.72182 -7.56784,31.59058 -5.89416,17.15728 -8.04943,27.57939 -7.36714,35.625 0.63633,7.50352 2.22467,12.52753 5.63141,17.8125 1.16331,1.80469 2.39368,4.42628 2.73414,5.82578 0.34045,1.3995 1.40229,2.79314 2.35963,3.09698 0.95735,0.30385 2.85934,1.88197 4.22666,3.50693 2.13767,2.54048 2.40729,3.52892 1.92411,7.0541 -0.46886,3.42069 -0.18389,4.59524 1.72073,7.09234 2.2927,3.00588 4.19836,9.24364 4.24106,13.88216 l 0.0229,2.48955 -16.75553,-0.1458 -16.75552,-0.14579 -1.18523,-2.8125 c -0.65189,-1.54688 -1.26944,-3.02344 -1.37233,-3.28125 -1.21178,-3.03623 -2.25473,-4.02646 -5.97337,-5.6714 -5.88177,-2.60178 -8.30438,-5.04812 -11.50751,-11.62024 -1.49388,-3.06509 -3.4824,-6.44009 -4.41895,-7.5 -1.70456,-1.9291 -6.57733,-9.35503 -10.18451,-15.52086 -3.4091,-5.82725 -5.18157,-13.27386 -4.70981,-19.78715 0.55357,-7.64286 2.21244,-17.77917 4.66322,-28.4941 2.10534,-9.20467 3.04645,-30.63581 1.5644,-35.625 -0.4595,-1.54688 -1.6872,-6.37871 -2.72821,-10.73742 -1.04101,-4.35871 -2.26359,-8.29577 -2.71683,-8.74901 -0.45326,-0.45326 -11.73704,-0.94289 -25.07508,-1.08809 -20.9119,-0.22763 -25.21912,-0.52654 -31.28224,-2.17093 -8.34203,-2.26243 -17.95075,-5.67881 -19.10341,-6.79221 -0.45219,-0.43679 -1.71782,-0.46575 -2.8125,-0.0643 -2.48837,0.91244 -18.0769,-1.36904 -24.95909,-3.6529 -8.63885,-2.86681 -15.2802,-5.40023 -19.21875,-7.33123 -7.27069,-3.56468 -7.5221,-3.53218 -10.87103,1.4054 -1.67615,2.47128 -5.02112,6.81356 -7.43328,9.6495 -5.04751,5.9343 -8.97825,13.87982 -12.6147,25.49913 -2.17221,6.9407 -2.49705,9.38427 -2.18097,16.40625 0.36105,8.0212 0.55859,8.63401 7.09686,22.01565 3.69901,7.57063 7.22221,15.79719 7.82934,18.28125 1.66549,6.81433 3.10271,9.07443 9.07221,14.26654 4.54525,3.95335 5.82305,5.77109 7.60497,10.81864 1.178,3.3368 2.75795,6.57825 3.51102,7.20323 1.76862,1.46784 3.25451,4.27527 4.14471,7.831 0.39031,1.559 1.37902,5.28093 2.19714,8.27092 0.81811,2.99 1.48748,6.89234 1.48748,8.67188 0,3.98301 -0.44389,4.0024 -11.71875,0.5119 -7.4764,-2.31457 -8.59026,-2.94895 -9.77857,-5.56926 -0.92701,-2.04419 -1.99222,-2.95717 -3.45017,-2.95717 -1.89257,0 -2.02721,0.28564 -1.31127,2.78197 0.43882,1.53008 1.06708,3.21758 1.39614,3.75 0.37694,0.6099 -0.93365,0.96803 -3.54253,0.96803 -2.87103,0 -5.98416,-0.96082 -10.15202,-3.13326 -8.21555,-4.28222 -13.94283,-7.97155 -13.94283,-8.9815 0,-0.46267 -1.89106,-2.64352 -4.20234,-4.84633 -4.36823,-4.16319 -5.54717,-6.71563 -6.55886,-14.20014 -2.18852,-16.19084 -20.93412,-54.63503 -32.66652,-66.99377 l -6.40672,-6.74876 0.55846,-4.96999 c 1.90105,-16.91822 1.41573,-19.66079 -2.66804,-15.07746 -1.36064,1.52708 -2.99157,3.45036 -3.6243,4.27395 -0.63274,0.82359 -4.10355,2.96528 -7.71293,4.75931 -6.601,3.28102 -8.44724,4.87996 -12.6065,10.91795 -1.24315,1.80469 -4.94312,5.75919 -8.22213,8.7878 -8.29273,7.65941 -9.07197,9.39021 -7.29651,16.20663 1.74832,6.71226 1.78508,13.71498 0.11979,22.81807 -1.49972,8.19802 -0.85247,16.59512 1.682,21.82174 0.94426,1.94727 4.46744,5.95508 7.82929,8.90625 12.87029,11.29808 12.70557,11.10509 12.09289,14.16849 -0.45761,2.28804 -0.20369,2.925 1.36442,3.4227 2.29779,0.72928 4.568,5.71693 4.568,10.03586 0,1.70652 0.62998,4.00218 1.39995,5.10147 0.9957,1.42156 1.23247,3.22059 0.81996,6.23022 -0.72112,5.26114 -3.21676,6.28071 -8.53351,3.4863 -1.94158,-1.02047 -6.27234,-3.15918 -9.6239,-4.75269 -3.35156,-1.5935 -7.14844,-3.48722 -8.4375,-4.20825 -7.047572,-3.94202 -11.463844,-6.17932 -11.677303,-5.91574 -0.953023,1.17671 -1.207442,6.42898 -0.337463,6.96665 1.27665,0.78902 -1.659054,3.1745 -3.906723,3.1745 -1.95419,0 -8.990257,-7.30676 -9.880061,-10.26017 -0.379697,-1.26028 -1.444695,-2.94778 -2.366661,-3.75 -0.921967,-0.80222 -3.000446,-4.62264 -4.618841,-8.48983 -1.618396,-3.86719 -3.767289,-8.57332 -4.775317,-10.45807 -2.965416,-5.54456 -6.655443,-17.85799 -6.061162,-20.2258 1.484833,-5.91604 -3.82305,-29.48326 -8.288861,-36.80288 -1.096622,-1.79741 -2.415733,-3.95192 -2.931358,-4.78781 -7.223792,-11.71057 -10.16519,-21.10064 -7.931173,-25.31932 2.36021,-4.457 7.969842,-10.50855 14.418118,-15.55398 7.526123,-5.88879 9.919305,-9.2587 9.919305,-13.96768 0,-1.82613 0.412112,-4.09027 0.915804,-5.03142 0.503692,-0.94116 1.316795,-5.23765 1.806895,-9.54775 1.04294,-9.17195 4.078978,-21.17026 6.787677,-26.82462 3.455973,-7.21429 4.526737,-13.96966 3.509293,-22.13985 -0.50533,-4.05786 -1.550409,-9.12036 -2.322397,-11.25 -5.553884,-15.32117 -11.473217,-34.65702 -12.521839,-40.90332 -3.356394,-19.99293 -3.3376,-31.41642 0.09144,-55.58291 0.569827,-4.01592 0.804994,-7.53272 0.522592,-7.81512 -0.622194,-0.62219 -16.229782,11.40357 -22.55833,17.38136 -6.06027,5.72438 -10.9555,12.38925 -14.905538,20.29391 -4.717925,9.44134 -6.782628,16.1173 -9.550077,30.87901 -1.353335,7.21875 -3.079902,16.02441 -3.836817,19.56813 -0.756915,3.54371 -1.376554,7.9734 -1.376976,9.84375 -4.22e-4,1.87034 -0.594964,6.35374 -1.321206,9.96312 -0.726241,3.60937 -1.605398,9.82944 -1.953682,13.82238 -0.739777,8.48127 -2.8825025,12.36458 -5.5849564,10.12175 -5.87984709,-4.87984 -6.4178357,-20.15788 -1.9325583,-54.88163 0.7326378,-5.67188 1.5820812,-12.63281 1.887652,-15.46875 0.8566536,-7.95042 7.3330767,-27.70207 12.2959807,-37.5 C 25.245658,114.92789 44.300519,91.153443 56.024467,82.187441 67.283709,73.576827 71.112358,71.01113 78.75,66.958353 83.132812,64.632692 87.773437,62.116881 89.0625,61.367661 107.89525,50.421812 133.93152,37.5 137.15364,37.5 c 1.28564,0 5.22936,-1.223184 8.76382,-2.718188 8.68583,-3.673928 26.84423,-6.232003 42.05129,-5.923997 3.60937,0.07311 18.16406,0.365985 32.34375,0.650846 24.2889,0.487948 38.40213,1.503792 66.93283,4.817702 6.64899,0.772296 17.82868,1.796072 24.84375,2.275054 7.01507,0.478984 15.70779,1.5026 19.31717,2.274703 3.60937,0.772103 8.88281,1.429521 11.71875,1.46093 2.83594,0.03141 7.05469,0.504065 9.375,1.050346 2.32031,0.546282 6.44685,0.929174 9.17007,0.850875 2.72323,-0.0783 7.99667,0.278414 11.71875,0.792697 3.72209,0.514283 12.2518,1.179049 18.95493,1.477259 16.44176,0.731461 39.0594,2.358175 40.74176,2.930243 2.41656,0.821725 29.12121,0.502899 44.10199,-0.526531 14.26548,-0.980276 23.24141,-2.616562 25.74327,-4.692917 0.69438,-0.576284 2.46355,-1.414284 3.93149,-1.86222 2.8961,-0.883732 14.57836,-5.239282 22.82524,-8.510037 2.83594,-1.124747 6.84375,-2.380763 8.90625,-2.791146 9.24457,-1.839429 18.14816,-3.914261 22.03125,-5.134013 5.06682,-1.591584 23.56954,-4.326336 30.75468,-4.545626 l 5.15172,-0.15723 2.20203,-6.09375 c 2.81241,-7.7829075 4.94905,-11.9609859 6.40183,-12.51847118 0.6321,-0.24255863 3.08089,0.19489741 5.44175,0.97212448 3.09471,1.0188206 4.93977,2.3912588 6.61219,4.9184654 1.27585,1.9279288 4.49603,4.9018583 7.15596,6.6087333 4.76076,3.054966 4.91565,3.085636 9.92346,1.964939 l 5.08721,-1.138469 -1.39666,-2.700855 c -2.02149,-3.9091379 -1.72817,-6.3262703 1.08397,-8.9324816 3.52713,-3.26883384 6.99874,-2.96831197 11.29531,0.9777857 1.96229,1.802224 3.89827,3.2787865 4.30217,3.28125 0.40391,0.00247 2.21095,1.4810414 4.01563,3.2857289 2.39124,2.391241 4.10002,3.28125 6.29986,3.28125 5.43935,0 14.95435,3.388428 30.20014,10.754711 8.25,3.986138 16.59232,7.472697 18.53848,7.747911 1.94617,0.275214 3.76404,0.865337 4.03971,1.311383 0.27567,0.446048 2.20706,0.810995 4.29198,0.810995 4.83634,0 19.27407,4.806228 26.56733,8.844097 3.09375,1.712835 10.89844,6.753151 17.34375,11.200701 12.66578,8.739953 18.27821,11.720578 37.03125,19.66642 10.06619,4.265143 13.41133,6.217979 19.21875,11.219584 29.49449,25.401968 31.08264,27.138728 38.058,41.619458 2.78685,5.78546 5.067,10.85132 5.067,11.25746 0,0.40615 1.12612,2.84446 2.5025,5.41849 1.37637,2.57402 3.49421,7.40204 4.70631,10.72893 2.10761,5.7848 2.13138,6.12029 0.54439,7.68431 -0.9127,0.89949 -4.81806,3.18972 -8.67859,5.08943 l -7.01913,3.454 -3.28684,-1.76331 c -1.94837,-1.04526 -3.95866,-3.19084 -4.93661,-5.26884 -0.93174,-1.97981 -3.25382,-4.51811 -5.33529,-5.83208 -2.02704,-1.27962 -4.08718,-3.04429 -4.57809,-3.9215 -0.82998,-1.48308 -1.21501,-1.45621 -5.49074,0.38316 -2.529,1.08795 -6.90128,2.24589 -9.71617,2.57322 -2.81489,0.32732 -7.40061,1.03035 -10.19047,1.56229 -3.69735,0.70496 -7.43273,0.6431 -13.77868,-0.22817 -8.28001,-1.13682 -9.04132,-1.08948 -15.55251,0.96682 -5.71912,1.80617 -9.54754,2.23481 -23.25258,2.60349 -9.02344,0.24273 -16.82813,0.77593 -17.34375,1.18487 -0.51563,0.40895 -5.36719,1.94614 -10.78125,3.41598 -8.22958,2.23421 -11.42434,2.64165 -19.4827,2.4847 -5.68906,-0.11082 -12.02793,-0.85206 -15.46875,-1.80887 -3.7885,-1.05348 -9.44073,-1.64574 -16.1423,-1.69145 -8.73977,-0.0596 -10.947,-0.39138 -14.47297,-2.17551 -3.27571,-1.6575 -5.74847,-2.10518 -11.62796,-2.10518 -6.3494,0 -8.35877,-0.42111 -13.42016,-2.8125 -3.27397,-1.54688 -6.56967,-2.8125 -7.32379,-2.8125 -0.75412,0 -2.7569,1.20871 -4.45062,2.68601 -1.69373,1.47731 -3.92325,2.95458 -4.9545,3.28282 -2.23066,0.71 -7.88965,5.94844 -11.40533,10.55775 -3.37401,4.42354 -12.82766,11.02859 -18.53401,12.94929 -2.54477,0.85654 -6.18099,2.9614 -8.08048,4.67749 -3.04885,2.75445 -12.2928,7.09664 -15.10782,7.09664 -3.26048,0 -7.22759,4.10813 -10.17221,10.53385 -5.50979,12.02338 -11.63327,19.78249 -20.92865,26.51888 -3.00063,2.17457 -5.49824,4.8406 -6.10511,6.51681 -1.81129,5.00285 -9.92648,15.81448 -14.78422,19.69656 -2.59127,2.07083 -5.69138,5.45265 -6.88911,7.51515 -1.19774,2.0625 -3.89274,5.81469 -5.9889,8.33821 -4.18941,5.04352 -6.03756,10.78779 -8.61194,26.76704 -2.9877,18.54466 -1.28765,46.37906 4.75572,77.8635 1.81854,9.4742 2.24036,10.69576 6.31267,18.28125 4.62553,8.61599 11.06519,17.10998 14.60285,19.26137 1.55972,0.94852 4.65851,2.20532 6.88619,2.7929 2.22769,0.58756 6.82348,2.93213 10.21284,5.21014 3.38937,2.27801 6.57997,4.14184 7.09023,4.14184 2.37884,0 6.26041,5.71577 6.98215,10.28152 0.41255,2.60974 1.57371,5.90166 2.58036,7.31536 1.11815,1.57032 2.0959,5.05084 2.51299,8.94566 l 0.68274,6.37527 -7.38048,-0.27345 c -4.05926,-0.15039 -8.43517,0.0241 -9.72423,0.38774 -1.61238,0.45487 -4.34169,-0.15481 -8.74636,-1.95378 z m 17.71802,-2.01582 4.95996,0 -0.75098,-2.57813 c -2.76415,-9.48948 -12.74452,-19.65837 -17.95629,-18.29546 -2.23856,0.5854 -7.92262,15.09581 -6.70771,17.12359 1.68321,2.80942 7.03677,4.81804 11.37983,4.26964 2.26338,-0.28581 6.34721,-0.51964 9.07519,-0.51964 z m -30.59484,-4.63016 c 0.99892,-0.63209 -0.5417,-1.73504 -5.98013,-4.28123 -4.02913,-1.88637 -8.32672,-3.5365 -9.55019,-3.66694 -1.22348,-0.13045 -2.50508,-0.51775 -2.848,-0.86067 -1.12266,-1.12266 -1.86768,-0.66158 -3.02098,1.86965 -1.31291,2.88149 -0.71312,3.52899 4.58498,4.94977 1.80469,0.48395 4.75781,1.28955 6.5625,1.7902 4.26916,1.18434 8.56313,1.26779 10.25182,0.19922 z m 7.52301,-6.29892 c 0.55045,-2.1438 2.50442,-6.08366 4.34214,-8.75523 1.83772,-2.67158 3.20304,-4.95803 3.03405,-5.081 -0.169,-0.12297 -1.78383,-0.80825 -3.58852,-1.52283 -1.80469,-0.71459 -7.38993,-5.38526 -12.41166,-10.37928 -8.39936,-8.35303 -9.53514,-9.93209 -14.18561,-19.72193 -6.87361,-14.46989 -9.63772,-25.10978 -11.41069,-43.92315 -3.02131,-32.05988 -2.69733,-54.56974 0.97822,-67.96875 1.93361,-7.04887 3.31311,-20.37127 3.25203,-31.40625 -0.0578,-10.45442 -0.5705,-12.714 -7.59256,-33.46673 -4.02372,-11.89157 -5.59272,-20.46885 -3.62423,-19.81269 0.66957,0.22319 1.70388,2.28284 2.29845,4.57699 0.59457,2.29415 2.27182,6.91337 3.72722,10.26493 6.05315,13.93948 6.7153,16.05292 7.48993,23.90625 0.30517,3.09375 0.58643,10.37109 0.62502,16.17187 0.0855,12.84286 1.31346,13.70997 6.58533,4.65004 5.44868,-9.36377 5.75504,-22.72511 0.79311,-34.58945 -1.86067,-4.44899 -2.5526,-10.35403 -1.01775,-8.68559 0.45063,0.48985 2.32939,5.5786 4.17503,11.30834 2.99919,9.31084 3.29612,11.12868 2.79472,17.10937 -0.37383,4.45902 -0.22793,6.69167 0.4373,6.69167 0.98596,0 10.43994,-9.4356 11.58211,-11.5596 3.19028,-5.93266 0.25594,-7.44062 -3.04612,-1.5654 -1.15919,2.0625 -2.42691,3.75 -2.81715,3.75 -1.22268,0 -1.83416,-1.71709 -0.83205,-2.33643 0.52593,-0.32504 0.72167,-1.52554 0.43499,-2.66778 -0.67696,-2.69722 1.78229,-4.97444 10.82686,-10.02542 8.08044,-4.51258 14.00128,-9.86277 17.60456,-15.90787 2.45428,-4.11746 3.44973,-6.36135 6.65436,-15 0.86075,-2.32031 1.86657,-4.69733 2.23516,-5.28227 0.36858,-0.58494 1.32278,-3.87763 2.12044,-7.31708 3.04991,-13.15092 7.37714,-21.15899 10.01048,-18.52565 0.81592,0.81592 0.67624,1.52762 -0.57018,2.9049 -2.54314,2.81013 -7.65415,20.7201 -5.91295,20.7201 0.14677,0 2.66749,-0.84375 5.60158,-1.875 2.93408,-1.03125 5.97684,-1.875 6.76168,-1.875 4.18221,0 13.61987,-12.99012 13.61987,-18.74657 0,-2.30759 1.47326,-4.69093 2.8997,-4.69093 1.5912,0 1.68779,3.43372 0.22696,8.06801 -0.8728,2.76883 -1.33667,5.28448 -1.03082,5.59032 0.952,0.95201 4.79095,-1.61913 8.21666,-5.50311 5.96691,-6.76512 9.59039,-10.10039 13.01885,-11.98332 15.32724,-8.41782 16.72228,-10.65004 13.71975,-21.95315 -1.60791,-6.053 -3.52957,-10.14255 -6.16739,-13.125 -2.11648,-2.393 -6.43684,-10.54062 -5.88297,-11.0945 1.44451,-1.44451 4.1591,1.3737 7.35724,7.63806 2.46008,4.81866 3.79528,6.62984 4.02973,5.46623 0.19285,-0.95711 -0.11081,-2.20164 -0.67479,-2.76562 -0.56398,-0.56398 -1.02542,-1.97589 -1.02542,-3.13756 0,-2.68639 -1.66882,-6.5291 -4.4987,-10.35896 -2.18763,-2.96068 -2.48722,-5.9306 -0.65755,-6.51852 0.51562,-0.16567 2.79662,2.95975 5.06887,6.94539 4.11401,7.21614 4.1345,7.29792 4.87132,19.44096 l 0.73994,12.19435 4.03494,3.53414 c 5.53789,4.85056 12.71557,8.18728 17.6118,8.18728 l 4.02096,0 -3.15868,-2.75783 c -2.70509,-2.36181 -2.92563,-2.84726 -1.53579,-3.38059 1.02201,-0.39219 3.27255,0.42142 6.0785,2.1975 7.85333,4.97087 16.36416,7.82194 22.4021,7.50454 l 5.37187,-0.28237 -4.82586,-2.34375 c -2.65423,-1.28906 -4.84226,-2.70529 -4.8623,-3.14718 -0.0201,-0.44188 0.70186,-0.49339 1.6042,-0.11448 0.90235,0.37892 3.75,1.4837 6.32813,2.45506 2.57812,0.97137 5.38648,2.16208 6.2408,2.64602 2.74938,1.55744 16.96119,3.76411 25.16545,3.90745 10.41052,0.18187 19.39911,-2.00929 29.60465,-7.2168 4.47867,-2.28528 8.93105,-4.15507 9.89419,-4.15507 2.99802,0 1.92144,2.48473 -1.76447,4.07235 -3.40272,1.46566 -3.064,1.50242 10.54688,1.14468 7.73437,-0.20329 15.32812,-0.80352 16.875,-1.33386 1.54687,-0.53033 4.63072,-1.62762 6.85299,-2.43843 3.44463,-1.25678 5.27095,-1.31638 12.3842,-0.40414 11.42047,1.46462 29.5039,-0.51309 34.60878,-3.78501 1.11545,-0.71494 1.13592,-1.11577 0.11958,-2.34038 -1.68964,-2.0359 -6.89854,-1.85291 -11.3093,0.39729 -4.46091,2.27578 -12.14016,2.47007 -17.86034,0.45187 -3.34103,-1.17878 -4.93069,-1.23475 -9.2585,-0.32596 -9.14756,1.92086 -14.87216,2.05597 -18.29488,0.43179 -1.733,-0.82236 -3.61448,-1.4952 -4.18109,-1.4952 -0.56661,0 -1.03019,-0.46701 -1.03019,-1.0378 0,-0.64976 0.61345,-0.75673 1.64062,-0.28608 0.90235,0.41344 4.25232,0.91534 7.44438,1.11533 4.74685,0.2974 6.79557,-0.0815 11.25,-2.08018 l 5.44625,-2.44379 6.03713,2.36626 c 7.28246,2.85436 12.02957,2.9921 16.93162,0.49126 4.91946,-2.50972 14.76789,-2.65703 15.66923,-0.23437 1.97553,5.30985 8.76254,10.54687 13.66843,10.54687 3.18705,0 3.68557,0.93506 1.45954,2.73759 l -1.93557,1.56734 2.52752,3.00378 c 1.39014,1.65208 3.05134,3.00379 3.69156,3.00379 0.64021,0 3.23942,-1.05293 5.77603,-2.33982 2.5366,-1.28691 5.35029,-2.3416 6.25264,-2.34375 0.90234,-0.002 1.64062,-0.44993 1.64062,-0.99504 0,-2.2249 -2.14854,-9.32139 -2.82217,-9.32139 -0.39851,0 -1.01207,-1.14552 -1.36347,-2.5456 -0.3514,-1.40008 -1.40986,-4.24774 -2.35214,-6.32813 -0.94227,-2.08039 -2.76009,-6.36946 -4.03959,-9.53126 -1.2795,-3.16181 -3.04032,-6.53681 -3.91294,-7.5 -1.96486,-2.16882 -7.05838,-9.84333 -8.95316,-13.48991 -0.77672,-1.49483 -5.20641,-5.95373 -9.84375,-9.90866 -4.63734,-3.954924 -9.90809,-8.525069 -11.71278,-10.155866 -6.71949,-6.072037 -13.19578,-10.731024 -16.37558,-11.780453 -1.80254,-0.59489 -6.2494,-2.528032 -9.88191,-4.29587 -3.63251,-1.767839 -6.84046,-3.214251 -7.12876,-3.214251 -1.66936,0 -19.72755,-9.056424 -22.86375,-11.466474 -3.61785,-2.78018 -15.77929,-10.428614 -22.03125,-13.855647 -3.09375,-1.695848 -5.83594,-3.376891 -6.09375,-3.735649 -0.25781,-0.35876 -2.1423,-0.916793 -4.18776,-1.240074 -2.04545,-0.323281 -4.80416,-1.390067 -6.13045,-2.370635 -2.50837,-1.854519 -8.06244,-3.446612 -16.86929,-4.835639 -3.41195,-0.538136 -10.27595,-3.370743 -20.2903,-8.373315 C 685.76096,22.15203 678.32421,18.75 677.55856,18.75 c -0.76564,0 -3.00608,-0.674371 -4.97873,-1.498601 -5.77604,-2.41338 -30.71565,-1.693895 -38.80355,1.119448 -0.86917,0.302335 -1.01978,0.721619 -0.40689,1.132711 0.53521,0.358981 2.42018,2.762067 4.18882,5.340192 2.89753,4.223681 3.24822,5.438953 3.54421,12.281917 0.27374,6.32872 -0.005,8.248242 -1.67291,11.517487 -1.10077,2.157689 -2.4071,3.672335 -2.90295,3.36588 -1.30774,-0.808227 -1.05338,-3.44822 0.5345,-5.547593 1.66908,-2.206711 1.87265,-12.825364 0.30329,-15.819948 -2.34086,-4.466726 -6.84184,-9.254223 -11.78532,-12.535515 -2.8565,-1.896041 -6.72176,-5.467926 -8.58947,-7.937523 -1.86769,-2.469597 -4.4505,-4.7712728 -5.73956,-5.1148352 -1.28906,-0.3435623 -2.82725,-1.0036312 -3.41819,-1.4668197 -2.99911,-2.3507377 -9.32498,16.1501519 -8.37775,24.5018899 1.48862,13.125252 5.33534,20.868752 12.43327,25.028417 2.22759,1.305457 4.05017,2.966284 4.05017,3.690726 0,3.526033 -6.37644,-0.227375 -12.12868,-7.13939 C 598.29891,43.047605 596.25,37.136934 596.25,27.862792 l 0,-6.484393 -5.85938,0.638726 c -16.53735,1.802722 -37.61843,5.805509 -45.01897,8.548017 -1.94403,0.720422 -4.72975,1.309858 -6.1905,1.309858 -1.46075,0 -5.56549,1.085525 -9.12165,2.412278 -3.55616,1.326753 -7.57448,2.759114 -8.92958,3.183027 -1.3551,0.423912 -3.88635,1.416342 -5.625,2.2054 -18.46545,8.380267 -21.46145,9.014338 -47.69242,10.09355 -20.08531,0.826363 -26.55834,0.701423 -51.5625,-0.995236 -29.59192,-2.007962 -48.02214,-3.385678 -55.3125,-4.134779 -2.32031,-0.238418 -9.70313,-0.909381 -16.40625,-1.491028 -6.70313,-0.581648 -14.50781,-1.469163 -17.34375,-1.972257 -2.83594,-0.503093 -10.00781,-1.305211 -15.9375,-1.782484 -11.27606,-0.907595 -29.33326,-2.752764 -50.44711,-5.15492 -14.1881,-1.614202 -34.85104,-2.410248 -63.45914,-2.444782 -27.00281,-0.0326 -41.35799,1.676444 -51.35485,6.113997 -2.97956,1.322604 -6.09237,2.404734 -6.91737,2.404734 -3.51996,0 -27.08771,10.910896 -34.62559,16.030223 -2.10942,1.432607 -6.539112,3.914783 -9.843753,5.515948 -13.201914,6.396593 -21.491771,10.934429 -24.913489,13.637548 -1.977221,1.561982 -4.860573,3.634127 -6.407448,4.604765 -1.546875,0.97064 -3.678885,2.645779 -4.737801,3.722533 -1.058915,1.076753 -4.481273,4.357959 -7.60524,7.291568 C 29.414358,111.32739 16.758785,132.67434 10.470211,159.375 c -5.4626426,23.19383 -8.6940591,66.16346 -5.4198011,72.06959 1.2007158,2.16586 1.2522414,2.11533 1.9120603,-1.875 0.3729505,-2.25547 1.0529754,-6.21022 1.5111663,-8.78834 0.4581908,-2.57813 1.2466223,-9.20612 1.7520705,-14.72888 0.505449,-5.52276 1.316215,-10.7962 1.801704,-11.71875 0.485489,-0.92255 1.161186,-4.41956 1.501549,-7.77112 0.982631,-9.67598 5.050419,-27.97352 8.232539,-37.03125 5.360922,-15.25956 20.675311,-33.7054 40.782168,-49.12123 4.234954,-3.24692 7.981708,-6.811986 8.326121,-7.922377 0.344413,-1.110391 1.359257,-3.073581 2.255212,-4.362643 0.895955,-1.289063 1.954012,-3.398438 2.351238,-4.6875 0.830203,-2.69414 5.78321,-8.115552 6.635616,-7.263145 0.608428,0.608428 -2.414057,6.581485 -3.596229,7.106895 -0.386719,0.171875 -0.703125,0.988435 -0.703125,1.814577 0,0.826143 -0.85005,2.406913 -1.888999,3.512825 -1.252883,1.333632 -2.490275,5.142389 -3.674537,11.310426 -0.982046,5.114822 -2.025153,9.932482 -2.318017,10.705922 -1.332098,3.518 -3.366676,22.83434 -3.349876,31.80382 0.02111,11.27094 1.030733,19.5308 3.790269,31.00868 2.067902,8.60113 7.496725,25.99327 10.242172,32.8125 0.934166,2.32031 2.245418,8.13571 2.913893,12.9231 1.126612,8.06842 1.07267,9.26705 -0.738332,16.40625 -1.074557,4.23605 -2.843994,10.23315 -3.932082,13.3269 -3.495202,9.93787 -5.487899,18.51345 -6.629953,28.53203 -1.340743,11.76155 -2.908205,15.1471 -10.088874,21.79086 -8.688937,8.03925 -12.36054,12.23072 -14.423018,16.46517 l -1.936379,3.97557 2.069606,6.33693 c 2.020809,6.18753 5.91692,13.04285 11.481625,20.20225 2.290389,2.94675 2.899442,4.86582 3.570383,11.25 0.444913,4.23346 1.442907,10.22844 2.217762,13.32219 0.774857,3.09375 1.778082,9.21094 2.229388,13.59375 0.533184,5.17796 1.683487,9.85529 3.284547,13.35553 1.355195,2.96274 2.929114,7.23396 3.497596,9.49161 0.723363,2.87273 1.49892,4.06982 2.583854,3.98822 1.059906,-0.0797 1.701276,0.84224 2.027735,2.91483 0.463393,2.94197 3.008146,6.82707 4.452687,6.79796 0.391765,-0.007 1.306375,-0.39044 2.032468,-0.85011 1.120438,-0.7093 1.077579,-1.34696 -0.283287,-4.21477 -1.533704,-3.23205 -1.395456,-5.23327 0.361521,-5.23327 0.450448,0 1.076112,0.8101 1.390365,1.80022 0.698464,2.20067 5.740101,7.61463 8.929983,9.58948 1.289063,0.79805 3.929869,1.97091 5.86845,2.60635 3.25598,1.06727 3.73493,0.97846 6.28225,-1.16498 1.51665,-1.27617 4.45481,-3.1032 6.52924,-4.06006 3.40479,-1.57052 4.94527,-3.13024 3.11694,-3.15586 -0.96879,-0.0136 -11.47875,-7.82675 -14.04936,-10.44437 -2.55964,-2.60646 -1.24494,-4.80153 1.42734,-2.38315 3.741,3.38556 14.77732,9.88343 15.52243,9.13917 2.1744,-2.17191 0.57782,-3.92064 -15.1311,-16.57308 -6.197827,-4.99193 -6.409234,-6.24172 -5.847859,-34.57247 0.137635,-6.94602 -0.255431,-14.68791 -0.91395,-18.00144 -0.635503,-3.19768 -0.885084,-6.89118 -0.554634,-8.2078 0.33045,-1.31662 4.494603,-6.29409 9.253663,-11.06105 4.75907,-4.76697 9.34006,-9.51096 10.17998,-10.54221 2.59961,-3.19177 9.17631,-8.90625 10.25004,-8.90625 2.14511,0 11.37419,-8.18221 14.44967,-12.81063 2.682,-4.03625 4.45518,-5.46144 10.65692,-8.56551 12.95943,-6.48641 26.10997,-17.64576 29.87914,-25.35501 2.12787,-4.35222 4.17622,-4.64035 11.39349,-1.60265 3.13135,1.31797 7.18262,2.3963 9.00285,2.3963 1.82023,0 3.3095,0.42187 3.3095,0.9375 0,0.51562 1.58203,0.94757 3.51563,0.95987 4.95514,0.0315 10.68293,1.49316 11.58658,2.95671 0.42097,0.68182 2.48657,1.30837 4.59019,1.39233 2.10364,0.084 4.82502,0.80803 6.04752,1.60904 2.7323,1.79028 19.45665,8.84109 23.94758,10.09605 11.21205,3.13315 15.3319,3.62784 22.61142,2.71506 4.04299,-0.50695 9.03007,-1.77837 11.08239,-2.82539 2.05232,-1.04702 4.38111,-1.90367 5.17509,-1.90367 2.27145,0 1.68599,1.82925 -0.90015,2.8125 -2.67953,1.01875 -3.18812,4.21876 -0.70312,4.42399 1.62633,0.13432 5.88715,1.94988 10.70388,4.56101 1.738,0.94216 7.17105,1.53007 17.8125,1.92751 8.42146,0.31452 15.78155,0.94491 16.35576,1.40086 0.61804,0.49074 4.06078,0.25018 8.4375,-0.58956 4.06641,-0.7802 10.08441,-1.65402 13.37331,-1.94179 9.42812,-0.82498 24.93372,-6.77503 39.23986,-15.05774 3.26515,-1.8904 4.45831,-3.70479 3.02062,-4.59333 -0.49311,-0.30477 -0.89656,-0.10734 -0.89656,0.43872 0,2.02122 -2.79705,0.91206 -3.36041,-1.33255 -0.39002,-1.55396 0.0696,-3.34227 1.38536,-5.39063 4.49165,-6.99237 5.55157,-10.33936 4.86822,-15.37277 -0.35898,-2.64414 -1.34577,-5.86532 -2.19289,-7.15817 -1.43869,-2.19573 -1.32315,-3.50305 0.30961,-3.50305 1.44056,0 5.55261,9.87849 5.55261,13.33918 0,4.14995 -1.83089,9.05637 -4.07353,10.91623 -2.13665,1.77197 -1.94414,4.53097 0.40383,5.78757 1.0754,0.57554 2.06411,0.90678 2.1971,0.7361 0.13301,-0.17068 1.23165,-2.10758 2.44145,-4.30422 2.8316,-5.1414 4.37737,-3.82108 2.38768,2.03943 -2.05959,6.06638 -1.96303,6.44259 2.31813,9.03162 6.75711,4.08635 8.38784,5.63992 8.38784,7.99088 0,2.21578 -2.13571,3.19174 -3.20355,1.46394 -0.27593,-0.44648 -1.58963,-0.60381 -2.91932,-0.34961 -2.41351,0.46137 -2.4145,0.46554 -0.58175,2.45239 2.50662,2.71737 11.37448,19.3896 15.72085,29.55636 0.97076,2.27074 5.19875,11.13011 9.39553,19.6875 8.93547,18.21973 15.31765,33.37663 18.19678,43.21513 1.13169,3.86719 3.428,10.40625 5.10291,14.53125 8.70897,21.44873 9.97878,24.48554 10.7802,25.78125 0.47837,0.77344 2.33419,3.9375 4.12406,7.03125 1.78986,3.09375 6.88479,9.40883 11.32207,14.03349 l 8.0678,8.4085 1.83478,-2.7835 c 2.50885,-3.80609 2.31236,-5.77602 -0.7332,-7.35093 -1.41919,-0.7339 -3.383,-2.22129 -4.36405,-3.30533 -0.98104,-1.08404 -2.35114,-1.97098 -3.04466,-1.97098 -0.69352,0 -1.26095,-0.63281 -1.26095,-1.40625 0,-1.98104 1.31077,-1.75118 4.38119,0.76828 1.45753,1.19599 5.60318,3.79187 9.21256,5.76862 3.60937,1.97674 8.31428,5.18768 10.45536,7.13541 2.14107,1.94773 5.61474,4.05722 7.71927,4.68776 2.10454,0.63053 4.56071,1.9578 5.45817,2.94948 0.89746,0.99168 1.72528,1.45429 1.8396,1.02801 0.11432,-0.42628 0.65823,-2.52909 1.20868,-4.67289 z M 481.9714,395.88499 c -2.34417,-2.05698 -2.91087,-3.28551 -2.91904,-6.32813 -0.006,-2.07659 -0.63915,-5.84907 -1.40793,-8.38331 -1.36885,-4.51229 -1.21602,-6.4472 0.37159,-4.7048 1.19303,1.30935 3.85898,9.80119 3.85898,12.29201 0,1.1972 0.42187,2.17674 0.9375,2.17674 0.51562,0 0.9375,1.05469 0.9375,2.34375 0,2.43882 1.4089,3.21132 2.13727,1.17187 0.70816,-1.98283 1.82385,-0.0327 1.1664,2.03873 -0.80939,2.55017 -1.59078,2.45686 -5.08227,-0.60686 z M 73.765625,387.51562 C 73.413281,387.16328 73.125,385.98449 73.125,384.8961 c 0,-1.0884 -0.635234,-2.88582 -1.411631,-3.99428 -0.883313,-1.26111 -1.61704,-5.28646 -1.960467,-10.75548 -0.4767,-7.59132 -1.030494,-9.75415 -4.213369,-16.45519 -2.015493,-4.2433 -3.664533,-8.19802 -3.664533,-8.78826 0,-0.59023 -1.476563,-4.34341 -3.28125,-8.34039 -1.804688,-3.99698 -3.28125,-8.43703 -3.28125,-9.86678 0,-1.42975 1.36111,-5.27899 3.02469,-8.55388 3.167018,-6.23452 5.686472,-7.95215 4.952291,-3.37622 -0.227504,1.41797 -0.676703,6.26954 -0.998221,10.78125 C 61.969743,330.05859 61.322679,333.75 60.853342,333.75 60.384004,333.75 60,334.38281 60,335.15625 c 0,0.77344 0.587677,1.40625 1.305948,1.40625 1.57085,0 2.444052,2.0173 2.444052,5.64635 0,1.47427 0.384848,2.91834 0.855218,3.20905 0.470371,0.2907 2.591363,3.69189 4.713315,7.5582 3.708686,6.75742 3.834463,7.26032 3.247842,12.98608 -0.486728,4.75074 -0.177297,7.41486 1.528663,13.16139 1.389046,4.67903 1.818534,7.52535 1.225065,8.11883 -0.502619,0.50261 -1.202134,0.62557 -1.554478,0.27322 z M 58.788057,325.08906 c -0.224243,-1.16617 -0.416229,-0.43281 -0.426635,1.62969 -0.01041,2.0625 0.173067,3.01664 0.407715,2.12031 0.23465,-0.89634 0.243164,-2.58384 0.01892,-3.75 z m 415.023473,46.58603 c -0.66277,-2.64065 -0.0924,-3.75363 1.4386,-2.80739 1.25535,0.77586 1.3236,5.1948 0.0802,5.1948 -0.5058,0 -1.18928,-1.07434 -1.51884,-2.38741 z m -2.17501,-9.62069 c -0.0407,-0.67477 -1.34686,-2.81074 -2.90257,-4.7466 -1.5557,-1.93585 -3.63577,-6.34249 -4.62239,-9.79252 -0.98663,-3.45001 -2.6669,-7.38266 -3.73396,-8.7392 -1.06705,-1.35655 -1.9401,-3.27425 -1.9401,-4.26157 0,-0.98732 -0.63283,-3.01888 -1.40629,-4.51459 -0.77345,-1.4957 -1.98333,-5.16615 -2.6886,-8.15656 -1.28151,-5.43376 -4.69484,-12.93348 -6.35269,-13.95809 -1.43367,-0.88606 -5.15553,-7.23226 -5.72411,-9.76027 -0.28993,-1.28906 -1.61145,-4.875 -2.93673,-7.96875 -2.44929,-5.7177 -3.18152,-10.78125 -1.55906,-10.78125 0.49225,0 1.19115,1.57852 1.55308,3.50781 0.36194,1.92929 1.64668,5.36712 2.85499,7.63963 1.2083,2.2725 2.19691,5.02575 2.19691,6.11831 0,1.09257 1.05469,3.53861 2.34375,5.43563 1.28906,1.89704 2.34375,3.88536 2.34375,4.41852 0,0.53316 1.05632,1.2345 2.34737,1.55853 2.59048,0.65017 3.98105,4.44625 6.15062,16.79032 0.6439,3.66354 2.54184,9.23805 4.29646,12.61927 1.72868,3.33122 3.14305,6.96679 3.14305,8.07904 0,1.11226 1.72974,5.00997 3.84388,8.6616 2.11413,3.65162 3.624,7.18793 3.35527,7.85846 -0.39896,0.9954 -0.5022,0.99399 -0.56263,-0.007 z m 242.5041,-257.70065 c -0.90234,-0.2358 -1.64062,-0.81967 -1.64062,-1.29749 0,-1.01292 0.0583,-1.02639 5.75881,-1.33054 6.38572,-0.34072 16.9059,-2.523257 19.2325,-3.990014 1.30783,-0.824503 2.23012,-0.939272 2.60989,-0.324778 0.91149,1.474828 -1.58583,4.767052 -3.68609,4.859392 -6.29377,0.27666 -10.69536,0.86507 -12.98588,1.73592 -2.63552,1.00202 -6.26451,1.1378 -9.28861,0.34751 z m 2.52647,-7.855263 c -1.57529,-0.457818 -3.86367,-1.896337 -5.0853,-3.196695 -1.22161,-1.300361 -2.99134,-2.364292 -3.93271,-2.364292 -0.94137,0 -1.71158,-0.576376 -1.71158,-1.280836 0,-1.382756 8.08762,-8.09136 9.76323,-8.098506 0.55991,-0.0023 3.4805,-1.007445 6.49021,-2.233461 5.35418,-2.181055 5.4278,-2.260207 3.41399,-3.670737 -6.21595,-4.353822 6.97766,-4.574106 14.37329,-0.23998 5.51811,3.233832 11.37997,10.83602 8.35538,10.83602 -1.49522,0 -4.8961,-2.967306 -4.8961,-4.27191 0,-0.7442 -0.44211,-1.35309 -0.98247,-1.35309 -0.54036,0 -2.04237,-1.160156 -3.33782,-2.578125 -2.07434,-2.270528 -2.2295,-2.320253 -1.30048,-0.416776 1.76704,3.620507 0.49516,4.454425 -1.82474,1.196416 -1.66571,-2.339275 -2.37627,-2.765128 -3.00966,-1.803757 -0.66753,1.0132 -1.0176,0.938718 -1.79607,-0.382133 -1.46739,-2.48978 -2.47156,-1.964534 -2.02758,1.060553 0.30908,2.10581 0.78736,2.598955 2.17,2.237387 1.08693,-0.284238 1.99825,0.121802 2.35398,1.048822 0.31924,0.831937 1.16812,1.512613 1.88639,1.512613 0.71827,0 1.30595,0.421875 1.30595,0.9375 0,0.515625 0.60791,0.9375 1.35092,0.9375 1.9334,0 2.74142,1.739137 1.50192,3.232642 -0.58222,0.70153 -0.79797,2.313847 -0.47945,3.582929 0.54874,2.186378 0.32906,2.331449 -4.18788,2.765473 -2.62185,0.251925 -5.53424,1.152375 -6.47195,2.001 -1.85219,1.676212 -7.18376,1.918359 -11.92147,0.541443 z m 7.04656,-6.430573 c 1.27212,-2.376957 0.29072,-4.755414 -1.96216,-4.755414 -1.85475,0 -4.09464,4.109068 -3.10912,5.703671 0.93223,1.508381 4.0706,0.921553 5.07128,-0.948257 z M 732.3195,90 c 1.31159,0 0.0839,-1.693501 -2.05921,-2.840443 -1.5916,-0.851801 -1.82279,-0.661365 -1.82279,1.50151 0,1.873569 0.36127,2.338402 1.48293,1.907985 C 730.73603,90.256073 731.81562,90 732.3195,90 Z M 714.375,88.59375 c 0,-0.773438 -0.39698,-1.40625 -0.88217,-1.40625 -1.18217,0 -2.02884,1.46399 -1.27985,2.212987 1.05581,1.055798 2.16202,0.643022 2.16202,-0.806737 z M 644.0625,51.968074 c 0,-1.042793 -0.54439,-1.296644 -1.875,-0.874324 -1.03125,0.327306 -1.875,0.315358 -1.875,-0.02655 0,-0.940927 3.14479,-6.068051 3.71776,-6.061272 0.27554,0.0033 1.24879,1.319658 2.16277,2.925329 1.27185,2.234387 1.4099,3.222893 0.58833,4.212822 -1.42983,1.722844 -2.71886,1.639399 -2.71886,-0.176005 z M 614.46366,46.607405 C 610.34144,44.19116 605.86453,38.024114 605.12993,33.75 c -1.16574,-6.782669 -0.60917,-16.686483 1.08285,-19.268844 1.87495,-2.861529 2.67414,-2.866964 5.50367,-0.03744 1.24093,1.240922 3.64752,2.726239 5.34801,3.300704 4.45115,1.503707 6.45531,3.441542 11.42617,11.048068 4.30904,6.593762 4.39076,6.853803 3.29896,10.497885 -1.17584,3.924605 -3.37517,5.679714 -4.25244,3.393548 -0.28429,-0.740829 0.15355,-2.304149 0.97298,-3.474044 2.06783,-2.952231 1.8816,-4.282899 -1.08825,-7.775747 -1.41797,-1.667677 -3.30685,-4.377623 -4.19751,-6.022101 -0.95891,-1.770497 -3.0376,-3.58253 -5.09668,-4.442866 -1.91251,-0.799099 -4.80956,-2.469066 -6.43786,-3.711038 C 610.06152,16.016159 608.40236,15 608.00281,15 c -0.39955,0 -0.55109,3.902344 -0.33675,8.671875 0.32826,7.304585 0.787,9.346027 2.90945,12.947603 1.38586,2.35165 3.58112,5.272844 4.87836,6.491544 2.23799,2.102485 3.17333,4.73997 1.6555,4.668258 -0.38671,-0.01827 -1.57728,-0.545616 -2.64571,-1.171875 z M 420.2413,437.60369 l 5.39756,0.1217 -0.60725,-2.53457 c -1.02869,-4.29362 -3.01608,-7.48617 -7.10754,-11.41762 -4.32045,-4.15148 -4.71371,-4.30756 -6.55428,-2.60132 -3.01567,2.79556 -7.42962,5.41959 -10.98081,6.5279 -4.51863,1.41026 -4.72217,2.6257 -1.27317,7.60261 l 2.5533,3.68442 6.58732,-0.75241 c 3.62303,-0.41383 9.01622,-0.69765 11.98487,-0.63071 z m -291.54778,-0.96307 c 0.68981,-1.96079 -1.04236,-5.39992 -4.96325,-9.85429 C 121.67862,424.45553 120,422.18604 120,421.74301 c 0,-1.60077 -1.69219,-0.73406 -6.0415,3.09436 l -4.43048,3.89986 6.33077,3.18839 c 3.48192,1.75361 7.19761,3.79554 8.25709,4.53763 2.36982,1.65989 4.03341,1.72435 4.57764,0.17738 z M 547.21335,433.514 c -2.94172,-2.53195 -4.40085,-2.87243 -4.40085,-1.02694 0,1.21011 5.63635,4.33912 6.5625,3.64317 0.25781,-0.19373 -0.71493,-1.37104 -2.16165,-2.61623 z m -8.67275,-4.37338 c -0.93777,-3.05145 -3.40815,-5.09255 -7.55829,-6.24488 -6.64779,-1.84582 -6.51774,-1.02962 0.58019,3.64122 3.86719,2.54484 7.16514,4.64634 7.3288,4.67 0.16365,0.0236 0.006,-0.90618 -0.3507,-2.06634 z m -449.4781,-2.9981 0,-4.16998 -2.8125,0.98044 c -1.546875,0.53925 -2.8125,1.16719 -2.8125,1.39545 0,0.88356 4.143243,5.96407 4.863804,5.96407 0.418658,0 0.761196,-1.87649 0.761196,-4.16998 z m 301.875,1.41281 c 0,-0.48519 -0.43897,-1.15347 -0.97549,-1.48505 -1.75434,-1.08425 -5.58701,-7.86173 -5.58701,-9.87977 0,-2.65883 2.25352,-1.81794 2.66404,0.99407 0.43812,3.00117 5.14717,7.50874 7.81072,7.47656 2.69515,-0.0325 13.1725,-5.61345 13.70702,-7.30121 0.21492,-0.6786 -0.49744,-1.46608 -1.58301,-1.74996 C 405.8882,415.32608 405,414.59941 405,413.99513 c 0,-0.60427 -0.84375,-2.75364 -1.875,-4.77638 C 400.87899,404.81333 400.89833,405 402.68787,405 c 0.79082,0 2.28683,1.43888 3.32445,3.19753 1.92457,3.2619 4.10635,4.72606 5.63478,3.78144 1.52613,-0.9432 0.9113,-3.56294 -2.41712,-10.29913 -5.45301,-11.03601 -6.53257,-21.85308 -3.36786,-33.74525 2.03869,-7.66091 6.97085,-23.92651 9.51284,-31.37209 4.0752,-11.93644 4.68778,-17.07195 3.55496,-29.80274 -1.05897,-11.90102 -1.06552,-11.92346 -5.1987,-17.83886 -4.97996,-7.1273 -6.37616,-10.40096 -5.01606,-11.76106 1.54611,-1.54611 1.16745,-2.3233 -1.90641,-3.91285 -2.85116,-1.47439 -2.91672,-1.45367 -6.83995,2.16265 -7.37407,6.79718 -21.2061,13.64195 -32.73865,16.20071 -2.98435,0.66214 -5.02171,1.45382 -4.52745,1.75928 0.49425,0.30547 1.1893,1.8168 1.54457,3.35851 0.35526,1.54171 1.28529,4.70155 2.06675,7.02186 1.02961,3.05714 1.44648,8.60705 1.51401,20.15625 0.0772,13.19371 -0.26175,17.55149 -1.96844,25.3125 -2.79727,12.72034 -4.82209,27.41989 -4.3261,31.40625 1.46949,11.81062 2.42139,14.56597 7.61119,22.03125 2.86766,4.125 6.57296,9.02689 8.23398,10.89308 1.66103,1.8662 3.54782,5.03026 4.19287,7.03125 0.64505,2.00099 1.63055,4.21271 2.18998,4.91491 1.81482,2.27801 7.17599,3.8169 7.17599,2.05984 z m -148.21618,-8.93529 c -1.15127,-4.57212 -3.2572,-7.20657 -7.56628,-9.46514 -2.15906,-1.13166 -2.96059,-1.11906 -5.85938,0.0922 -3.72881,1.558 -3.79355,1.72422 -2.31902,5.95406 1.15276,3.30682 4.17301,5.23648 9.77451,6.245 2.04468,0.36813 4.3469,1.00547 5.11604,1.4163 2.01274,1.0751 2.09287,0.67711 0.85413,-4.24235 z m -118.00587,0.49467 c -1.22298,-2.28514 -2.84045,-3.33947 -2.84045,-1.85152 0,0.61813 0.73828,1.68429 1.64063,2.36926 2.20312,1.67242 2.34028,1.61323 1.19982,-0.51774 z m 297.15955,0.95722 c 0,-1.20867 -4.66838,-6.63443 -5.70833,-6.63443 -1.61698,0 -0.849,2.24654 1.66498,4.87058 2.56415,2.6764 4.04335,3.32168 4.04335,1.76385 z m -207.1875,-2.78924 c 0,-2.54542 -7.37043,-6.79301 -9.66054,-5.56737 -2.39341,1.28091 -1.74564,2.2975 3.09804,4.8619 5.30045,2.80625 6.5625,2.94192 6.5625,0.70547 z m 9.98964,-10.03209 4.43663,-4.3119 -2.29126,-1.761 c -1.2602,-0.96856 -2.8186,-1.77038 -3.46313,-1.78185 -1.57645,-0.028 -1.48155,-1.40926 0.19225,-2.79839 1.09839,-0.91159 1.98197,-0.66088 4.53574,1.28697 3.66716,2.79708 4.51637,2.4272 3.82731,-1.66699 -0.9136,-5.42836 -3.23838,-9.48146 -6.96065,-12.13549 -4.97041,-3.54397 -7.66835,-7.41959 -10.23792,-14.70695 -3.84749,-10.91153 -7.64526,-18.64639 -8.91588,-18.1588 -0.77285,0.29657 -1.41681,-0.72112 -1.82158,-2.87873 C 203.63429,346.50186 202.93934,345 202.43432,345 c -1.56336,0 -3.61271,-7.14944 -6.1808,-21.5625 l -0.41761,-2.34375 1.6795,1.96553 c 1.64144,1.92097 1.71515,1.71781 3.25298,-8.96529 1.60385,-11.14168 4.19854,-17.51019 9.45205,-23.19947 1.05345,-1.14083 2.38403,-2.8795 2.95684,-3.86372 0.5728,-0.98421 3.87572,-5.3199 7.3398,-9.63484 7.36925,-9.17933 7.79338,-8.54099 -7.16252,-10.77971 -9.15643,-1.37059 -19.84404,-4.37314 -21.58894,-6.06513 -1.91205,-1.85407 -4.24766,-0.67055 -7.54725,3.8244 -4.2835,5.83529 -16.78602,16.62902 -22.72649,19.62032 -2.45335,1.23538 -6.14813,3.08179 -8.21063,4.10314 -5.26226,2.60586 -5.19862,2.48467 -4.29278,8.1747 0.51008,3.20404 0.4348,8.17824 -0.20034,13.23828 l -1.01744,8.10571 5.04768,5.95679 c 2.77622,3.27623 5.73744,6.5896 6.5805,7.36304 3.67,3.36692 12.16737,17.96441 18.5548,31.875 2.4973,5.43863 7.7109,22.96479 9.50351,31.94724 0.80665,4.04193 1.18919,4.72288 6.01622,10.70901 2.07892,2.57812 3.84717,4.80477 3.92945,4.94811 0.4303,0.74956 5.09715,-1.79209 5.09715,-2.77601 0,-0.63555 -1.51479,-2.70684 -3.36622,-4.60286 -4.39411,-4.49998 -2.63723,-5.53994 2.19835,-1.30127 7.286,6.38663 12.85266,9.52167 17.30376,9.7452 0.88256,0.0444 3.60112,-1.85977 6.04125,-4.23132 z m 12.29279,-3.1881 c -1.23265,-1.97378 -2.59493,-2.49041 -2.59493,-0.98408 0,0.49 0.73828,1.32092 1.64062,1.84649 2.24611,1.30824 2.2869,1.27139 0.95431,-0.86241 z M 653.20312,13.137802 c 4.64636,-0.01492 5.23395,-1.579015 1.16955,-3.113155 C 652.8245,9.4402809 651.3307,8.2465629 651.05311,7.3719395 650.53898,5.7521013 646.09747,3.75 643.01809,3.75 c -0.93617,0 -2.14318,0.8241263 -2.68226,1.8313919 -1.3751,2.5694124 4.02365,8.8739791 6.9306,8.0934291 1.07378,-0.28832 3.74529,-0.529979 5.93669,-0.537019 z"
     id="path3366"
     inkscape:connector-curvature="0" />
</svg>
