<?xml version="1.0" encoding="UTF-8" standalone="no"?>
<svg
   width="124.06617pt"
   height="73.970047pt"
   viewBox="0 0 124.06617 73.970047"
   version="1.1"
   id="svg1022"
   sodipodi:docname="tapir_ft.svg"
   inkscape:version="1.1.1 (3bf5ae0d25, 2021-09-20, custom)"
   xmlns:inkscape="http://www.inkscape.org/namespaces/inkscape"
   xmlns:sodipodi="http://sodipodi.sourceforge.net/DTD/sodipodi-0.dtd"
   xmlns="http://www.w3.org/2000/svg"
   xmlns:svg="http://www.w3.org/2000/svg">
  <sodipodi:namedview
     id="namedview1024"
     pagecolor="#ffffff"
     bordercolor="#666666"
     borderopacity="1.0"
     inkscape:pageshadow="2"
     inkscape:pageopacity="0.0"
     inkscape:pagecheckerboard="0"
     inkscape:document-units="pt"
     showgrid="false"
     fit-margin-top="0"
     fit-margin-left="0"
     fit-margin-right="0"
     fit-margin-bottom="0"
     inkscape:zoom="2.296624"
     inkscape:cx="155.66327"
     inkscape:cy="164.15399"
     inkscape:window-width="1916"
     inkscape:window-height="1029"
     inkscape:window-x="0"
     inkscape:window-y="0"
     inkscape:window-maximized="1"
     inkscape:current-layer="svg1022" />
  <defs
     id="defs955">
    <clipPath
       id="clip1">
      <path
         d="M 0,0 H 2798.0195 V 1668.2305 H 0 Z m 0,0"
         id="path949" />
    </clipPath>
    <clipPath
       id="clip2">
      <path
         d="M 665,0 H 2606 V 1668.2305 H 665 Z m 0,0"
         id="path952" />
    </clipPath>
  </defs>
  <g
     id="surface1"
     transform="matrix(0.04434071,0,0,0.04434071,0,-4.7909113e-4)">
    <g
       clip-path="url(#clip1)"
       clip-rule="nonzero"
       id="g959">
      <path
         style="fill:none;stroke:#000000;stroke-width:9.96277;stroke-linecap:butt;stroke-linejoin:miter;stroke-miterlimit:10;stroke-opacity:1"
         d="m 1074.0504,-1004.042 24.5195,-11.0039 16.6016,-22.832 21.3945,-16.5352 21.3633,15.9492 18.4687,21.6328 23.2969,16.1993 21.8867,-15.3477 12.4922,-25.4023 12.5391,-25.4922 17.375,-21.8868 23.5312,-13.4921 28.0782,-4.7422 27.8593,-0.1055 28.6836,-2.1172 27.75,-5.0547 26.7149,-8.3125 25.4062,-12.3633 25.8008,-12.5507 25.9531,-10.8907 27.3672,-7.7265 27.7891,-3.7774 28.2109,-3.832 28.1719,-3.8242 28.0586,-3.8125 28.125,-3.8203 28.1367,-1.9297 28.2266,0.4883 28.3515,3.1367 28.3125,3.1289 28.0117,3.0976 27.9883,2.9805 28.6055,0.6289 28.3203,0.625 28.5859,0.6289 28.2735,0.7813 27.6836,3.9453 28.2851,4.0312 27.9766,3.9844 28.1562,4.0156 28.0039,2.1758 28.7305,1.9336 27.9453,1.8789 28.5547,1.918 27.9492,3.4219 27.9336,3.6953 28.2735,3.7422 28.1757,3.7304 28.0664,1.7461 28.2735,0.8516 28.2812,0.8555 28.5547,0.8593 28.4766,1.711 27.8125,2.0703 28.8125,2.1484 27.8711,-0.9609 28.3984,-1.4063 28.4649,-1.7929 27.9453,-4.0469 28.0351,-4.0586 27.9102,-4.8555 27.4922,-6.0039 27.4101,-8.5781 26.1875,-10.9805 24.9219,-12.3867 24.9336,-14.3984 24.4219,-14.1016 24.707,-14.2656 24.5742,-14.1875 24.1953,-13.9727 24.4922,-14.1406 24.5313,-14.1641 23.8476,-15.4726 20.0391,-20.3047 19.8281,-20.0859 19.332,-20.9219 18.1602,-21.1211 18.7773,-21.8359 15.9375,-22.9805 14.3086,-24.8242 12.1211,-25.5352 7.9688,-26.8086 8.1836,-27.5586 7.4883,-27.289 5.8398,-27.3477 5.9531,-27.8711 4.7071,-27.9062 3.4609,-28.4063 1.8281,-28.3398 -0.7851,-27.8672 -2.875,-28.543 -7.9727,-26.6953 -20.0078,1.7383 -9.6875,26.2969 -6.0469,27.7578 -5.4179,27.7031 -5.4649,27.9766 -4.5859,27.8984 -4.5274,27.9726 -5.1797,28.0586 -7,27.2461 -10.2851,26.5625 -12.5,25.4219 -14.4063,24.5352 -16.6953,22.7109 -19.1758,20.6797 -22.4257,16.6836 -23.7774,-4.0235 -5.0664,-28.0312 0.1914,-28.0938 0.1953,-28.1484 0.1953,-28.2773 -0.4531,-28.8086 -5.0039,-27.4766 -8.0781,-27.4375 -8.8555,-26.8789 -8.8906,-26.9805 -8.8711,-26.9218 -5.293,-27.6563 -1.9218,-27.8203 1.6914,-28.7578 5.4414,-27.6602 5.5312,-27.8359 6.1367,-27.6133 7.2657,-27.2031 7.3203,-27.3945 10.4687,-26.586 13.2305,-24.5195 16.5273,-23.1445 16.711,-23.3946 12.1406,-25.0429 4.3281,-27.3907 -3.5625,-27.6679 -9.4844,-27.2735 -11.4179,-25.8047 -11.6133,-25.8632 -10.8711,-25.7657 -6.332,-27.6133 -4.6289,-28.3007 -4.25,-27.6563 -5.086,-27.8281 -10.039,-26.6055 -13.7383,-24.8554 -16.9219,-22.5196 -21.1289,-18.789 -25.1953,-13.0821 -26.8125,-8.3047 -27.1445,-7.3242 -28.1289,-3.0508 -27.1719,5.8829 -14.5781,21.996 3.4921,27.1602 11.836,25.5781 16.4844,23.0391 16.5156,23.0898 15.375,23.6993 12.5078,25.6445 7.1758,27.3945 3.0625,28.3985 0.4531,28.1953 -2.1758,27.9961 -6.5898,27.6406 -12.9453,25.2773 -16.8164,22.4961 -19.4571,20.0821 -21.8672,18.4062 -24.4843,14.5078 -23.0704,-10.1719 -13.1835,-24.9843 -11.4844,-26.0547 -11.4336,-25.9375 -13.793,-24.2813 -14.164,-24.75 -14.2071,-24.8242 -13.8554,-24.3242 -10.1563,-26.8125 -9.8828,-26.0977 -10.1953,-26.9218 -9.8906,-26.125 -14.4336,-24.5079 -19.1719,-20.6171 -24.2227,-13.6329 -27.3789,-7.3945 -27.6797,-5.0508 -27.9023,-5.0937 -28.0039,-1.5977 -18.8789,17.1524 1,27.4804 9,26.336 12.3789,25.8554 14.5586,24.4571 14.3359,24.0742 14.5703,24.4727 14.5313,24.414 14.3164,24.043 10.5195,26.7734 7.6094,26.7461 5.3047,27.9024 0.8476,28.2187 -3.8593,28.0391 -7.7852,27.1093 -11.5859,25.754 -16.8047,23.4492 -21.2539,18.414 -25.6094,10.8946 -27.832,1.9297 -27.5235,-4.125 -27.7226,-7.4922 -26.9922,-7.2969 -27.5274,-7.4414 -27.5078,-7.4336 -27.5312,-7.4453 -28.1367,-3.4649 -27.9727,-3.1836 -28.2305,-3.2187 -27.7929,-3.1641 -28.5782,-3.2578 -27.3398,-6.3633 -24.5664,-12.9297 -17.1797,-21.9062 -8.3984,-26.7852 -2.2266,-27.8945 1.3359,-28.4883 2.7188,-28.1953 3.8867,-28.0937 3.8477,-27.7891 3.9375,-28.4297 1.1093,-28.0976 -3.5937,-27.8321 -8.6133,-27.2265 -11.4844,-25.625 -13.8632,-24.8672 -16.1797,-23.1172 -19.0703,-21.2813 -20.6954,-19.1484 -22.5468,-17.125 -24.1367,-14.8555 -25.836,-10.875 -28.1328,-4.1953 -25.2773,9.4258 -9.0664,25.7148 5.2539,27.25 9.8203,26.7071 11.957,25.4101 12.1484,25.8086 12.0352,25.5742 6.875,27.0547 -0.7109,27.875 -5.0079,27.9414 -5.0742,28.3047 -5.4843,27.4336 -6.5079,27.6406 -6.4687,27.4805 -10.0977,26.5352 -21.4023,2.0625 -15.6211,-23.4258 -12.1094,-25.6133 -10.7187,-26.0586 -10.836,-26.3359 -10.6914,-25.9883 -10.7812,-26.2109 -10.9805,-26.6836 -10.7344,-26.0938 -10.7187,-26.0586 -10.7305,-26.0859 -10.8359,-26.3399 -12.3906,-25.3632 -13.9375,-24.9024 -16.3868,-22.8945 -19.9531,-19.8164 -23.2422,-16.6563 -24.8554,-12.6289 -26.8086,-10.5859 -26.2969,-10.3867 -27.0195,-8.4571 -27.4688,-6.3828 -27.9375,-2.5195 -27.2734,7.6289 -17.2344,21.1953 1,27.668 12.3594,24.7383 18.1211,21.8203 21.0859,18.7539 22.9687,16.4609 23.254,16.668 21.5585,18.3906 18.6211,20.5117 15.5664,23.9102 11.0821,26.0234 8.5273,26.8555 6.3164,27.8555 3.4414,28.0468 3.4922,28.4649 2.7656,27.8164 1.8672,28.5937 1.836,28.1094 0.4297,28.1875 -1.3204,28.5352 -3.3554,28.2422 -6.8281,27.3867 -9.4805,26.5273 -11.8789,25.6328 -14.6367,24.3047 -17.8477,22.3399 -18.5898,20.6796 -19.6836,20.543 -19.6368,20.4961 -17.5156,22.6172 -17.0586,22.3711 -17.0781,22.4687 -17.168,23.0664 -19.039,20.5821 -21.5938,18.2617 -23.4179,16.043 -24.2579,15.0351 -23.6523,14.6563 -23.4492,16.6172 -22.2227,17.1132 -22.7695,17.5352 -22.332,17.1953 -24.6289,12.6563 -27.5782,6.1953 -28.289,0.3047 -28.1485,-5.086 -27.582,-4.9844 -28.08985,-5.2734 -27.84375,-5.5547 -27.31641,-5.4531 -28.48046,-3.457 -28.21094,-1.1993 -28.02735,1.0118 -28.2539,4.0742 -27.97656,4.1406 -28.03125,4.1484 -28.22266,4.1797 -27.87891,4.1289 -28.03906,2.6914 -28.66016,1.7422 -28.24218,1.7188 -27.75391,4.0469 -28.11719,4.6445 -28.21093,4.3203 -27.91407,0.4414 -27.84375,-5.9648 -26.96875,-8.9063 -26.58203,-9.9336 -26.6875,-8.789 -27.18359,3.8046 -15.77344,22.6602 -1.76563,28.4336 7.77344,27.168 11.30469,25.6757 14,24.6954 16.59766,23.0195 17.3789,22.6055 18.20703,21.4687 19.67578,20.1328 21.94141,18.0977 23.44922,16.164 24.43359,14.1719 25.25,12.8594 25.51172,11.9219 26.375,11.5429 26.10547,10.8321 26.44922,10.4687 30.78516,20.0742"
         transform="matrix(1,0,0,-1,-351.441,-946.042)"
         id="path957" />
    </g>
    <path
       style="fill:#bd3f3f;fill-opacity:0.25;fill-rule:nonzero;stroke:none"
       d="m 2464.8164,834.13672 c 0,-457.92969 -371.2148,-829.144532 -829.1445,-829.144532 -457.9297,0 -829.14456,371.214842 -829.14456,829.144532 0,457.92968 371.21486,829.14458 829.14456,829.14458 457.9297,0 829.1445,-371.2149 829.1445,-829.14458 z m 0,0"
       id="path961" />
    <g
       clip-path="url(#clip2)"
       clip-rule="nonzero"
       id="g965">
      <path
         style="fill:none;stroke:#bd3f3f;stroke-width:9.96277;stroke-linecap:butt;stroke-linejoin:miter;stroke-miterlimit:10;stroke-opacity:1"
         d="m 2816.2574,-1780.1787 c 0,457.9297 -371.2148,829.14451 -829.1445,829.14451 -457.9297,0 -829.1446,-371.21481 -829.1446,-829.14451 0,-457.9297 371.2149,-829.1446 829.1446,-829.1446 457.9297,0 829.1445,371.2149 829.1445,829.1446 z m 0,0"
         transform="matrix(1,0,0,-1,-351.441,-946.042)"
         id="path963" />
    </g>
    <path
       style="fill:#bd3f3f;fill-opacity:1;fill-rule:nonzero;stroke:none"
       d="m 1649.8438,834.13672 c 0,-7.82813 -6.3438,-14.17188 -14.1719,-14.17188 -7.8281,0 -14.1758,6.34375 -14.1758,14.17188 0,7.82812 6.3477,14.17578 14.1758,14.17578 7.8281,0 14.1719,-6.34766 14.1719,-14.17578 z m 0,0"
       id="path967" />
    <path
       style="fill:none;stroke:#bd3f3f;stroke-width:9.96277;stroke-linecap:round;stroke-linejoin:miter;stroke-miterlimit:10;stroke-dasharray:4.98138, 14.9441;stroke-opacity:1"
       d="m 1987.1129,-1780.1787 -616.9414,533.5703"
       transform="matrix(1,0,0,-1,-351.441,-946.042)"
       id="path969" />
    <path
       style="fill:#bd3f3f;fill-opacity:1;fill-rule:nonzero;stroke:none"
       d="m 1006.3711,289.87891 11.2226,26.98828 1.1368,-16.30078 15.9648,-3.47266"
       id="path971" />
    <path
       style="fill:#3f66bd;fill-opacity:0.25;fill-rule:nonzero;stroke:#3f66bd;stroke-width:9.96277;stroke-linecap:butt;stroke-linejoin:miter;stroke-miterlimit:10;stroke-opacity:1"
       d="m 1612.9332,-1235.9209 c 0,140.9023 -114.2188,255.12109 -255.1211,255.12109 -140.9023,0 -255.1211,-114.21879 -255.1211,-255.12109 0,-140.9024 114.2188,-255.1211 255.1211,-255.1211 140.9023,0 255.1211,114.2187 255.1211,255.1211 z m 0,0"
       transform="matrix(1,0,0,-1,-351.441,-946.042)"
       id="path973" />
    <path
       style="fill:#3f66bd;fill-opacity:1;fill-rule:nonzero;stroke:none"
       d="m 1020.543,289.87891 c 0,-7.82813 -6.3438,-14.17188 -14.1719,-14.17188 -7.82813,0 -14.17188,6.34375 -14.17188,14.17188 0,7.82812 6.34375,14.17187 14.17188,14.17187 7.8281,0 14.1719,-6.34375 14.1719,-14.17187 z m 0,0"
       id="path975" />
    <path
       style="fill:none;stroke:#3f66bd;stroke-width:9.96277;stroke-linecap:round;stroke-linejoin:miter;stroke-miterlimit:10;stroke-dasharray:4.98138, 14.9441;stroke-opacity:1"
       d="m 1357.8121,-1235.9209 -225.3242,-68.9219"
       transform="matrix(1,0,0,-1,-351.441,-946.042)"
       id="path977" />
    <path
       style="fill:#3f66bd;fill-opacity:1;fill-rule:nonzero;stroke:none"
       d="m 765.42187,363.58203 28.82422,4.85156 -13.19922,-9.63281 5.55079,-15.36719"
       id="path979" />
    <path
       style="fill:#51b054;fill-opacity:0.25;fill-rule:nonzero;stroke:#51b054;stroke-width:9.96277;stroke-linecap:butt;stroke-linejoin:miter;stroke-miterlimit:10;stroke-opacity:1"
       d="m 1303.9527,-1309.624 c 0,103.3281 -83.7617,187.0898 -187.0898,187.0898 -103.3281,0 -187.08596,-83.7617 -187.08596,-187.0898 0,-103.3282 83.75786,-187.086 187.08596,-187.086 103.3281,0 187.0898,83.7578 187.0898,187.086 z m 0,0"
       transform="matrix(1,0,0,-1,-351.441,-946.042)"
       id="path981" />
    <path
       style="fill:#51b054;fill-opacity:1;fill-rule:nonzero;stroke:none"
       d="m 779.59766,363.58203 c 0,-7.82812 -6.34766,-14.17578 -14.17579,-14.17578 -7.82812,0 -14.17187,6.34766 -14.17187,14.17578 0,7.82813 6.34375,14.17188 14.17187,14.17188 7.82813,0 14.17579,-6.34375 14.17579,-14.17188 z m 0,0"
       id="path983" />
    <path
       style="fill:none;stroke:#51b054;stroke-width:9.96277;stroke-linecap:round;stroke-linejoin:miter;stroke-miterlimit:10;stroke-dasharray:4.98138, 14.9441;stroke-opacity:1"
       d="m 1116.8629,-1309.624 -224.62502,10.5703"
       transform="matrix(1,0,0,-1,-351.441,-946.042)"
       id="path985" />
    <path
       style="fill:#51b054;fill-opacity:1;fill-rule:nonzero;stroke:none"
       d="m 524.47656,352.24219 25.4961,14.28515 -9.17579,-13.51562 10.40625,-12.59766"
       id="path987" />
    <path
       style="fill:#7d51b0;fill-opacity:0.25;fill-rule:nonzero;stroke:#7d51b0;stroke-width:9.96277;stroke-linecap:butt;stroke-linejoin:miter;stroke-miterlimit:10;stroke-opacity:1"
       d="m 992.14022,-1298.2842 c 0,64.1875 -52.03516,116.2227 -116.22266,116.2227 -64.1914,0 -116.22265,-52.0352 -116.22265,-116.2227 0,-64.1875 52.03125,-116.2226 116.22265,-116.2226 64.1875,0 116.22266,52.0351 116.22266,116.2226 z m 0,0"
       transform="matrix(1,0,0,-1,-351.441,-946.042)"
       id="path989" />
    <path
       style="fill:#7d51b0;fill-opacity:1;fill-rule:nonzero;stroke:none"
       d="m 538.64844,352.24219 c 0,-7.82813 -6.34375,-14.17188 -14.17188,-14.17188 -7.82812,0 -14.17578,6.34375 -14.17578,14.17188 0,7.82812 6.34766,14.17187 14.17578,14.17187 7.82813,0 14.17188,-6.34375 14.17188,-14.17187 z m 0,0"
       id="path991" />
    <path
       style="fill:none;stroke:#7d51b0;stroke-width:9.96277;stroke-linecap:round;stroke-linejoin:miter;stroke-miterlimit:10;stroke-dasharray:4.98138, 14.9441;stroke-opacity:1"
       d="m 875.91756,-1298.2842 -59.14062,91.1758"
       transform="matrix(1,0,0,-1,-351.441,-946.042)"
       id="path993" />
    <path
       style="fill:#7d51b0;fill-opacity:1;fill-rule:nonzero;stroke:none"
       d="m 456.44141,247.35937 3.26171,29.04297 5.63282,-15.33593 16.30078,1.10937"
       id="path995" />
    <path
       style="fill:#fd9135;fill-opacity:0.25;fill-rule:nonzero;stroke:#fd9135;stroke-width:9.96277;stroke-linecap:butt;stroke-linejoin:miter;stroke-miterlimit:10;stroke-opacity:1"
       d="m 870.24569,-1193.4014 c 0,34.4414 -27.91797,62.3633 -62.36328,62.3633 -34.44141,0 -62.35938,-27.9219 -62.35938,-62.3633 0,-34.4414 27.91797,-62.3633 62.35938,-62.3633 34.44531,0 62.36328,27.9219 62.36328,62.3633 z m 0,0"
       transform="matrix(1,0,0,-1,-351.441,-946.042)"
       id="path997" />
    <path
       style="fill:#fd9135;fill-opacity:1;fill-rule:nonzero;stroke:none"
       d="m 470.61719,247.35937 c 0,-7.82812 -6.34766,-14.17578 -14.17578,-14.17578 -7.82813,0 -14.17188,6.34766 -14.17188,14.17578 0,7.82813 6.34375,14.17188 14.17188,14.17188 7.82812,0 14.17578,-6.34375 14.17578,-14.17188 z m 0,0"
       id="path999" />
    <path
       style="fill:none;stroke:#fd9135;stroke-width:9.96277;stroke-linecap:round;stroke-linejoin:miter;stroke-miterlimit:10;stroke-dasharray:4.98138, 14.9441;stroke-opacity:1"
       d="m 807.88241,-1193.4014 -49.09766,8.5391"
       transform="matrix(1,0,0,-1,-351.441,-946.042)"
       id="path1001" />
    <path
       style="fill:#fd9135;fill-opacity:1;fill-rule:nonzero;stroke:none"
       d="m 391.24609,236.01953 23.51563,17.35547 -7.41797,-14.55469 11.89844,-11.19922"
       id="path1003" />
    <path
       style="fill:#979797;fill-opacity:0.25;fill-rule:nonzero;stroke:#979797;stroke-width:9.96277;stroke-linecap:butt;stroke-linejoin:miter;stroke-miterlimit:10;stroke-opacity:1"
       d="m 782.37069,-1182.0615 c 0,21.9179 -17.76563,39.6836 -39.6836,39.6836 -21.91796,0 -39.6875,-17.7657 -39.6875,-39.6836 0,-21.918 17.76954,-39.6875 39.6875,-39.6875 21.91797,0 39.6836,17.7695 39.6836,39.6875 z m 0,0"
       transform="matrix(1,0,0,-1,-351.441,-946.042)"
       id="path1005" />
    <path
       style="fill:#979797;fill-opacity:1;fill-rule:nonzero;stroke:none"
       d="m 405.41797,236.01953 c 0,-7.82812 -6.34375,-14.17187 -14.17188,-14.17187 -7.82812,0 -14.17578,6.34375 -14.17578,14.17187 0,7.82813 6.34766,14.17188 14.17578,14.17188 7.82813,0 14.17188,-6.34375 14.17188,-14.17188 z m 0,0"
       id="path1007" />
    <path
       style="fill:none;stroke:#979797;stroke-width:9.96277;stroke-linecap:round;stroke-linejoin:miter;stroke-miterlimit:10;stroke-dasharray:4.98138, 14.9441;stroke-opacity:1"
       d="m 742.68709,-1182.0615 -15.71093,-20.9453"
       transform="matrix(1,0,0,-1,-351.441,-946.042)"
       id="path1009" />
    <path
       style="fill:#979797;fill-opacity:1;fill-rule:nonzero;stroke:none"
       d="M 365.73437,270.03516 391.875,256.96484 h -16.33984 l -4.57422,-15.68359"
       id="path1011" />
    <path
       style="fill:#7ff5dc;fill-opacity:0.25;fill-rule:nonzero;stroke:#7ff5dc;stroke-width:9.96277;stroke-linecap:butt;stroke-linejoin:miter;stroke-miterlimit:10;stroke-opacity:1"
       d="m 745.52303,-1216.0772 c 0,15.6563 -12.6914,28.3477 -28.34765,28.3477 -15.65625,0 -28.34766,-12.6914 -28.34766,-28.3477 0,-15.6562 12.69141,-28.3476 28.34766,-28.3476 15.65625,0 28.34765,12.6914 28.34765,28.3476 z m 0,0"
       transform="matrix(1,0,0,-1,-351.441,-946.042)"
       id="path1013" />
    <path
       style="fill:#7ff5dc;fill-opacity:1;fill-rule:nonzero;stroke:none"
       d="m 379.90625,270.03516 c 0,-7.82813 -6.34375,-14.17188 -14.17188,-14.17188 -7.82812,0 -14.17578,6.34375 -14.17578,14.17188 0,7.82812 6.34766,14.17578 14.17578,14.17578 7.82813,0 14.17188,-6.34766 14.17188,-14.17578 z m 0,0"
       id="path1015" />
    <path
       style="fill:none;stroke:#7ff5dc;stroke-width:9.96277;stroke-linecap:round;stroke-linejoin:miter;stroke-miterlimit:10;stroke-dasharray:4.98138, 14.9441;stroke-opacity:1"
       d="m 717.17538,-1216.0772 -10.01172,-3.3398"
       transform="matrix(1,0,0,-1,-351.441,-946.042)"
       id="path1017" />
    <path
       style="fill:#7ff5dc;fill-opacity:1;fill-rule:nonzero;stroke:none"
       d="m 340.22266,278.53906 28.92968,4.13281 -13.42968,-9.29687 5.16406,-15.5"
       id="path1019" />
  </g>
</svg>
